<svg width="299" height="190" viewBox="0 0 299 190" fill="none" xmlns="http://www.w3.org/2000/svg">
<circle cx="95" cy="95" r="95" fill="#721D1D"/>
<circle cx="204" cy="95" r="95" fill="#2E8072"/>
<path d="M33.3 162.65L31.35 162.2V161.45C31.35 161.25 31.25 161 31.05 160.7C30.85 160.4 30.75 160.2 30.75 160.1C30.75 159.7 30.9 159 31.2 158C31.5 157.1 31.6 156.3 31.5 155.6L31.8 155.3C32.3 154.8 32.45 154.2 32.25 153.5L32.7 152C32.6 152 32.55 151.85 32.55 151.55V151.4C33.05 151.2 33.3 151 33.3 150.8C33.3 150.4 33.05 149.85 32.55 149.15C32.15 148.45 31.75 148.15 31.35 148.25C31.05 147.75 30.85 147.25 30.75 146.75C30.75 146.25 30.35 145.65 29.55 144.95C29.65 144.85 29.7 144.7 29.7 144.5C29.7 143.9 29.25 143.3 28.35 142.7C27.75 140.6 26.9 139.3 25.8 138.8L21.75 134.6C21.65 134.6 21.5 134.65 21.3 134.75C21.2 134.85 21.1 134.9 21 134.9C20.6 134.9 19.85 134.6 18.75 134C17.65 133.5 16.75 133.25 16.05 133.25C15.85 133.25 15.8 133.3 15.9 133.4C15.9 133.5 15.9 133.55 15.9 133.55C15.9 133.55 15.9 133.5 15.9 133.4C15.7 133.2 15.5 133.1 15.3 133.1C15.2 133.1 15.1 133.15 15 133.25V133.1C15 132.7 14.6 132.35 13.8 132.05C13.1 131.75 12.75 131.95 12.75 132.65L12.9 132.8L13.05 132.65C12.95 133.05 12.7 133.25 12.3 133.25C12.1 133.25 11.75 133.2 11.25 133.1C10.85 133 10.55 132.95 10.35 132.95C9.55 131.35 9 130.5 8.7 130.4V129.35C9.2 128.55 9.45 127.35 9.45 125.75C9.45 125.15 10.25 124.5 11.85 123.8C14.95 124.8 18.75 126 23.25 127.4C27.85 128.7 33.2 130.15 39.3 131.75C39.7 131.85 39.9 131.6 39.9 131C40 130.3 40.25 129.8 40.65 129.5C40.75 128.8 41.25 127.8 42.15 126.5V126.2C42.55 125.4 42.9 124.5 43.2 123.5C43.5 122.5 44.4 121 45.9 119L46.5 116.6C46.9 116.1 47.15 115.75 47.25 115.55C47.35 115.25 47.55 115 47.85 114.8V114.5C47.85 114.2 47.9 114 48 113.9L48.3 114.05V113C48.9 111.7 49.55 110.4 50.25 109.1C51.05 107.7 51.85 106.25 52.65 104.75C53.45 103.05 55.2 100.05 57.9 95.75C60.6 91.45 64.15 85.95 68.55 79.25C70.65 76.05 72.75 72.85 74.85 69.65C76.95 66.35 79.1 63.1 81.3 59.9C82.8 59.9 83.55 59.2 83.55 57.8C83.55 57.5 83.35 57.3 82.95 57.2C79.45 56.4 75.3 55.95 70.5 55.85L58.2 55.4C57.3 54 56.75 53.3 56.55 53.3C56.35 53.3 56.05 53.95 55.65 55.25C43.25 56.25 33.95 57.9 27.75 60.2C25.75 61 23.75 62.15 21.75 63.65C19.15 65.65 17.85 67.35 17.85 68.75C17.85 68.95 17.9 69.2 18 69.5C18.2 69.7 18.3 69.85 18.3 69.95C18.3 70.15 18.25 70.3 18.15 70.4C18.35 70.8 18.6 71.3 18.9 71.9C19.3 72.4 19.7 72.9 20.1 73.4L22.05 73.85C26.05 75.85 29.45 76.85 32.25 76.85C32.45 76.85 32.65 76.8 32.85 76.7C33.15 76.6 33.4 76.55 33.6 76.55C35.1 76.55 35.85 77 35.85 77.9C35.85 78.5 35.15 78.9 33.75 79.1C33.65 78.7 33.35 78.2 32.85 77.6L32.1 78.5C32 78.4 31.9 78.35 31.8 78.35C31.7 78.35 31.6 78.4 31.5 78.5C31.4 78.5 31.25 78.55 31.05 78.65L30.15 77.75C29.75 78.35 28.9 78.65 27.6 78.65C27.4 78.65 27.25 78.6 27.15 78.5C27.05 78.3 26.95 78.2 26.85 78.2H26.7L26.55 78.35C26.35 78.35 26.25 78.3 26.25 78.2C26.35 78 26.3 77.9 26.1 77.9C26 77.9 25.9 77.95 25.8 78.05C25.8 78.15 25.75 78.2 25.65 78.2C25.25 78.2 24.9 78 24.6 77.6L24.15 78.2C23.45 77.8 23.1 77.55 23.1 77.45C22.8 77.55 22.35 77.6 21.75 77.6C21.65 77.6 21.45 77.5 21.15 77.3C20.95 77.1 20.8 77 20.7 77C18.2 76.2 16.45 75.25 15.45 74.15C14.95 73.85 14.45 73.55 13.95 73.25C13.45 72.85 13.2 72.3 13.2 71.6C13.2 71.5 13.1 71.45 12.9 71.45C12.5 70.65 12.3 70.1 12.3 69.8C12.3 67.4 12.9 65.45 14.1 63.95V63.05L15.3 61.85L15.75 62.3C15.85 62.2 15.85 62 15.75 61.7C15.75 61.5 15.8 61.4 15.9 61.4H16.2C16.2 61.5 16.25 61.55 16.35 61.55C16.45 61.55 16.6 61.35 16.8 60.95C17 60.55 17.2 60.35 17.4 60.35C17.7 60.25 18.2 60.15 18.9 60.05C19.7 59.95 19.95 59.55 19.65 58.85C19.85 59.05 20 59.1 20.1 59C20.9 58.5 21.4 58.25 21.6 58.25C21.8 58.25 21.95 58.3 22.05 58.4H22.35C22.55 58.4 23.05 58.05 23.85 57.35C24.65 56.65 25.1 56.2 25.2 56H26.1L26.55 56.3C26.65 56.3 26.95 56.15 27.45 55.85C27.95 55.45 28.25 55.25 28.35 55.25C28.45 55.25 28.6 55.35 28.8 55.55C29.1 55.65 29.35 55.7 29.55 55.7C30.65 55.7 31.5 55.4 32.1 54.8C32.7 54.2 33.2 53.9 33.6 53.9C33.9 53.9 34.25 54.2 34.65 54.8L37.65 53.45C37.85 53.45 37.85 53.55 37.65 53.75C37.65 53.85 37.7 53.9 37.8 53.9C39 53.6 39.45 53.45 39.15 53.45C39.35 53.45 39.6 53.55 39.9 53.75C40.3 53.85 40.6 53.9 40.8 53.9C40.6 53.9 40.9 53.75 41.7 53.45C41.9 53.35 42.1 53.25 42.3 53.15C42.5 53.05 42.8 52.95 43.2 52.85C43.4 52.85 43.6 52.95 43.8 53.15C44 53.35 44.15 53.45 44.25 53.45C44.45 53.45 44.85 53.3 45.45 53C46.15 52.7 46.6 52.55 46.8 52.55H47.7C48 52.65 48.3 52.7 48.6 52.7C48.8 52.7 49.1 52.6 49.5 52.4C49.9 52.2 50.2 52.1 50.4 52.1C50.6 52.1 50.75 52.15 50.85 52.25H51.45C51.95 52.25 52.6 52.15 53.4 51.95C54.2 51.75 54.8 51.65 55.2 51.65H56.55C57.05 51.65 57.55 51.85 58.05 52.25L58.5 51.95V52.1C58.5 52.2 58.6 52.25 58.8 52.25C58.9 52.25 59.05 52.15 59.25 51.95C59.45 51.75 59.6 51.65 59.7 51.65C59.9 51.65 60.1 51.7 60.3 51.8C60.5 51.9 60.7 51.95 60.9 51.95C61.1 51.95 61.45 51.85 61.95 51.65C62.45 51.35 62.8 51.2 63 51.2C63.2 51.2 63.45 51.35 63.75 51.65C64.05 51.85 64.3 51.95 64.5 51.95C64.6 51.95 64.8 51.9 65.1 51.8C65.5 51.7 65.8 51.65 66 51.65L66.6 52.1C66.8 51.8 67.1 51.65 67.5 51.65H70.65C71.35 51.65 71.95 51.7 72.45 51.8C72.95 51.8 73.4 51.8 73.8 51.8C73.9 51.8 74 51.75 74.1 51.65H74.55C75.05 51.65 75.65 51.7 76.35 51.8C77.05 51.9 77.9 52.05 78.9 52.25C79.9 52.45 80.7 52.6 81.3 52.7C81.9 52.8 82.3 52.85 82.5 52.85C82.9 52.85 83.55 52.9 84.45 53C85.35 53.1 86 53.15 86.4 53.15H87C87.2 53.05 87.45 53 87.75 53C88.05 53 88.4 53.15 88.8 53.45C89.3 52.65 91.6 50.5 95.7 47C99.8 43.4 101.9 41.6 102 41.6C102.1 41.6 103 40.75 104.7 39.05C104.8 39.05 104.85 39.1 104.85 39.2C104.95 39.3 105.05 39.35 105.15 39.35C105.25 39.35 105.3 39.25 105.3 39.05C105.4 38.85 105.55 38.75 105.75 38.75C105.85 38.75 105.95 38.8 106.05 38.9H106.35C106.55 38.9 106.85 38.75 107.25 38.45C107.65 38.15 107.9 38 108 38C108.2 38 108.3 38.1 108.3 38.3C108.4 38.4 108.5 38.4 108.6 38.3C110.9 37.4 112 36.95 111.9 36.95C112.3 36.95 112.6 37.05 112.8 37.25H113.25C113.45 37.25 113.65 37.25 113.85 37.25C114.05 37.25 114.3 37.2 114.6 37.1C115.2 37.7 115.65 38 115.95 38C116.05 38 116.25 37.95 116.55 37.85C116.85 37.75 117.05 37.7 117.15 37.7H117.3H117.15C117.15 37.9 117.5 38.15 118.2 38.45C118.4 38.45 118.7 38.25 119.1 37.85C119.1 38.25 119.25 38.7 119.55 39.2C119.65 39.1 119.7 38.9 119.7 38.6C120.3 39 120.8 39.5 121.2 40.1C121.4 40.6 121.95 41.2 122.85 41.9V42.05C122.85 42.45 123.1 42.9 123.6 43.4C123.6 43.9 123.75 44.65 124.05 45.65C124.45 46.65 124.65 47.4 124.65 47.9C124.65 48.7 124.25 49.1 123.45 49.1C123.15 49.1 123.05 48.75 123.15 48.05C122.95 47.85 122.7 47.75 122.4 47.75C121.7 46.85 121.4 46.1 121.5 45.5C120.7 45 120.3 44.75 120.3 44.75C120.1 44.75 119.95 44.8 119.85 44.9C119.75 44.8 119.7 44.55 119.7 44.15H118.35C118.15 44.15 117.95 44.1 117.75 44C117.65 43.8 117.55 43.7 117.45 43.7C117.25 43.7 116.95 43.75 116.55 43.85C116.15 43.85 115.7 43.9 115.2 44C114.1 44.8 113.3 45.2 112.8 45.2C112.8 45.2 112.75 45.35 112.65 45.65C112.55 45.85 112.4 45.95 112.2 45.95C112 45.95 111.75 45.85 111.45 45.65C111.25 45.45 111.05 45.35 110.85 45.35C110.15 45.35 109.7 45.8 109.5 46.7L109.2 46.4C106.7 49.7 104.45 51.35 102.45 51.35C102.25 51.35 102.15 51.3 102.15 51.2C102.25 51.1 102.2 51.05 102 51.05C101.8 51.05 101.3 51.65 100.5 52.85L99.3 54.8C99.7 55.2 100.25 55.4 100.95 55.4C101.25 55.4 101.5 55.35 101.7 55.25H102.45C102.55 55.25 102.7 55.3 102.9 55.4C103.1 55.5 103.25 55.55 103.35 55.55C103.85 55.55 104.4 55.7 105 56C105.7 56.3 106.2 56.45 106.5 56.45C106.9 56.45 107.4 56.3 108 56C108 56 108.4 56.2 109.2 56.6C110 57 110.65 57.2 111.15 57.2C111.65 57.2 112.05 57.15 112.35 57.05H113.4C113.6 57.05 114.2 57.35 115.2 57.95C116.3 58.55 117.1 58.85 117.6 58.85C117.7 58.85 117.8 58.8 117.9 58.7H118.2C118.3 58.7 118.9 58.95 120 59.45C121.1 59.85 121.75 60.05 121.95 60.05H122.25C122.35 59.95 122.5 59.9 122.7 59.9C123.4 59.9 124.5 60.2 126 60.8C127.5 61.4 129.35 62.25 131.55 63.35L138.45 66.65C138.85 66.65 138.95 66.5 138.75 66.2C139.55 66.6 140.5 67.2 141.6 68C142.7 68.8 143.9 69.75 145.2 70.85C145.4 71.15 145.95 71.6 146.85 72.2C147.85 72.8 148.5 73.1 148.8 73.1V73.25C148.8 73.95 149.4 74.45 150.6 74.75L150.75 75.35L153.3 77.15C153.3 77.25 153.3 77.4 153.3 77.6C153.3 77.8 153.35 78 153.45 78.2C154.55 78.8 155.3 79.6 155.7 80.6C156.1 81.5 156.35 82 156.45 82.1V82.4C156.55 82.5 156.7 82.55 156.9 82.55C157.2 82.55 157.55 82.6 157.95 82.7C158.15 83.2 158.35 83.7 158.55 84.2C158.85 84.6 159.25 84.75 159.75 84.65V84.95C159.75 85.65 160.3 86.95 161.4 88.85V89.9C161.3 90.1 161.25 90.35 161.25 90.65C161.25 91.25 161.5 92.2 162 93.5C162.6 94.8 162.9 95.75 162.9 96.35C162.9 96.55 162.85 96.75 162.75 96.95C162.65 97.05 162.55 97.15 162.45 97.25C162.55 97.35 162.6 98.1 162.6 99.5C162.6 100 162.45 100.5 162.15 101C162.15 101.3 162.15 101.7 162.15 102.2C162.15 102.6 162.2 103.05 162.3 103.55C162.1 103.65 161.7 104 161.1 104.6C161.2 105.1 161.25 105.5 161.25 105.8C161.25 106.1 161.25 106.25 161.25 106.25C161.25 106.65 161.2 106.95 161.1 107.15C160.8 107.25 160.5 107.35 160.2 107.45C159.9 107.55 159.55 107.7 159.15 107.9C159.15 107.9 159.35 108 159.75 108.2C160.15 108.4 160.35 108.55 160.35 108.65C159.85 109.25 159.55 109.65 159.45 109.85C159.55 110.25 159.6 110.55 159.6 110.75C159 111.75 158.7 112.65 158.7 113.45C157.8 113.75 157 114.55 156.3 115.85C155.9 115.85 155.7 115.9 155.7 116L155.85 116.3C155.45 116.6 155.15 116.85 154.95 117.05C154.85 117.25 154.3 117.65 153.3 118.25C152.4 118.65 151.95 119 151.95 119.3C151.15 121.2 149.95 122.5 148.35 123.2C148.25 123.2 148.25 123.55 148.35 124.25C148.25 124.35 147.9 124.4 147.3 124.4C144.1 126.7 142.05 127.85 141.15 127.85C141.05 127.85 140.95 127.8 140.85 127.7C140.85 127.6 140.8 127.55 140.7 127.55C140.6 127.55 140.05 128 139.05 128.9C138.15 129.7 137.65 130.1 137.55 130.1H137.25C137.25 130 137.2 129.95 137.1 129.95C136.9 129.95 136.45 130.1 135.75 130.4C135.05 130.7 134.6 130.9 134.4 131C134.3 131 134.1 131.15 133.8 131.45C133.6 131.65 133.4 131.75 133.2 131.75C133.1 131.75 133.05 131.7 133.05 131.6H132.9C132.8 131.6 132.75 131.65 132.75 131.75C132.75 131.85 132.5 132 132 132.2L128.7 133.55C127.5 134.05 126.45 134.9 125.55 136.1C125.35 135.9 125.15 135.8 124.95 135.8C124.85 135.8 124.7 135.85 124.5 135.95C124.3 136.15 124.15 136.25 124.05 136.25C123.95 136.25 123.9 136.2 123.9 136.1H123.75C123.45 136.1 123 136.25 122.4 136.55C121.9 136.85 121.55 137 121.35 137C121.15 137 121 136.95 120.9 136.85H120.3L120.15 137.15C119.85 137.85 119.35 138.2 118.65 138.2L117.45 137.9C117.35 137.9 117.25 138 117.15 138.2C117.15 138.4 117.1 138.5 117 138.5C116.8 138.5 116.55 138.4 116.25 138.2C115.95 138 115.8 137.9 115.8 137.9C115.5 137.9 115.25 138 115.05 138.2C114.85 138.5 114.7 138.65 114.6 138.65C114.5 138.65 114.35 138.55 114.15 138.35C114.05 138.15 113.9 138.05 113.7 138.05C113.3 138.05 112.95 138.35 112.65 138.95C111.45 139.45 109.65 140 107.25 140.6C104.95 141.2 102.05 141.8 98.55 142.4H94.95C94.55 142.4 93.95 142.5 93.15 142.7C92.45 142.9 91.9 143 91.5 143C91.3 143 91.3 142.9 91.5 142.7H91.35C91.05 142.7 90.8 142.8 90.6 143H90.3C90 143 89.45 142.95 88.65 142.85C87.95 142.75 87.4 142.7 87 142.7C86.9 142.7 86.8 142.75 86.7 142.85C86.6 143.05 86.5 143.15 86.4 143.15H84.75C84.35 143.05 84.05 143 83.85 143C83.65 143 83.45 143 83.25 143C82.85 143 82.3 143 81.6 143C80.9 143 80 143.05 78.9 143.15C77.9 143.25 77.05 143.3 76.35 143.3C75.65 143.3 75.15 143.3 74.85 143.3C74.65 143.3 74.45 143.2 74.25 143C74.05 142.9 73.9 142.85 73.8 142.85C72.7 142.85 71 142.8 68.7 142.7C66.5 142.6 64.85 142.55 63.75 142.55C63.65 142.55 63.5 142.6 63.3 142.7C63.1 142.9 62.95 143 62.85 143C62.75 143 62.6 142.9 62.4 142.7C62.2 142.6 62.05 142.55 61.95 142.55C61.85 142.55 61.7 142.6 61.5 142.7C61.3 142.8 61.15 142.85 61.05 142.85V142.4H60.9C60.6 142.4 60.35 142.45 60.15 142.55H59.4C58.7 142.55 55.65 142.1 50.25 141.2L49.95 140.75C49.85 141.05 49.65 141.2 49.35 141.2C49.25 141.2 49.1 141.1 48.9 140.9C48.7 140.8 48.55 140.75 48.45 140.75H48.15C48.15 140.75 47.95 140.85 47.55 141.05L47.1 140.6L46.65 140.75V140.15C46.85 140.15 47.25 140.05 47.85 139.85C48.45 139.65 48.85 139.55 49.05 139.55C49.15 139.55 49.3 139.65 49.5 139.85C49.7 140.05 49.9 140.15 50.1 140.15C50.2 140.15 50.25 140.1 50.25 140C50.35 139.9 50.45 139.85 50.55 139.85C50.55 139.85 50.8 140.25 51.3 141.05L53.4 139.85C53.6 139.85 53.85 139.95 54.15 140.15C54.55 140.35 54.85 140.45 55.05 140.45L56.85 140.3C59.35 140.5 62.1 140.7 65.1 140.9C68.1 141.1 71.35 141.15 74.85 141.05L84.6 140.75C84.8 141.05 85.05 141.2 85.35 141.2C85.45 141.2 85.5 141.1 85.5 140.9C85.6 140.8 85.75 140.75 85.95 140.75C86.05 140.75 86.15 140.8 86.25 140.9C86.45 141.1 86.65 141.2 86.85 141.2C87.25 141.2 87.85 141 88.65 140.6C89.45 140.3 90.05 140.15 90.45 140.15C90.55 140.15 90.75 140.2 91.05 140.3C91.45 140.4 91.75 140.45 91.95 140.45C92.55 140.45 92.9 140.5 93 140.6C93.2 140.4 93.35 140.15 93.45 139.85C93.75 140.25 94.25 140.45 94.95 140.45C95.55 140.45 96.45 140.25 97.65 139.85C98.85 139.45 99.75 139.25 100.35 139.25C102.85 139.25 106.2 138.45 110.4 136.85C114.6 135.25 117.4 134.45 118.8 134.45C119.8 133.65 120.4 133.25 120.6 133.25C120.7 133.25 120.75 133.3 120.75 133.4H120.9C121 133.4 121.15 133.25 121.35 132.95C121.55 132.65 121.75 132.5 121.95 132.5C122.15 132.5 122.4 132.6 122.7 132.8C123 133 123.2 133.1 123.3 133.1C123.5 133.1 123.9 132.75 124.5 132.05C125.1 131.25 125.5 130.85 125.7 130.85C125.7 130.85 125.75 131 125.85 131.3C127.45 130.3 128.6 129.8 129.3 129.8C129.4 129.8 129.55 129.9 129.75 130.1L132.75 128.6C135.25 127 136.4 126.2 136.2 126.2H136.5C136.6 126.3 136.7 126.35 136.8 126.35C136.6 126.35 137.2 125.85 138.6 124.85C140 123.85 141.6 122.5 143.4 120.8C144.5 120.4 145.9 118.95 147.6 116.45C147.9 116.15 149 114.1 150.9 110.3C152.9 106.3 153.9 102.55 153.9 99.05C153.9 87.55 143.2 76.5 121.8 65.9L119.85 65.45C118.45 65.15 117.45 64.85 116.85 64.55C116.25 64.25 116 64.1 116.1 64.1L115.5 64.25C114.2 63.05 113.2 62.45 112.5 62.45C112.3 62.45 112.05 62.6 111.75 62.9C111.65 62.5 111.35 62.3 110.85 62.3H110.25C110.05 62.4 109.85 62.45 109.65 62.45C108.85 62.45 107.75 62.05 106.35 61.25C105.05 60.35 104.05 59.9 103.35 59.9C102.75 59.9 102.25 59.95 101.85 60.05H100.35C100.25 60.05 100.05 59.85 99.75 59.45C99.45 59.05 99.2 58.85 99 58.85C98.9 58.85 98.8 58.9 98.7 59C98.7 59.1 98.65 59.15 98.55 59.15C98.45 59.15 98.35 59.1 98.25 59C98.25 58.9 98.2 58.85 98.1 58.85C98 58.85 97.9 58.95 97.8 59.15C97.8 59.25 97.7 59.3 97.5 59.3C97.1 59.3 96.6 59.3 96 59.3C95.4 59.2 94.7 59.1 93.9 59L93 59.9C93 59.9 92.7 59.8 92.1 59.6C92 59.7 91.9 59.95 91.8 60.35C91.7 60.65 91.6 61.05 91.5 61.55C91.4 62.15 91.2 62.45 90.9 62.45C90.7 62.45 90.35 62.3 89.85 62C84.45 67.2 77.45 76.05 68.85 88.55C64.85 94.15 61.8 98.7 59.7 102.2C57.6 105.6 56.35 107.85 55.95 108.95V109.25C55.95 109.75 55.6 110.55 54.9 111.65C54.9 111.95 54.7 112.2 54.3 112.4C53.9 112.6 53.6 112.8 53.4 113L51.15 117.8C51.15 117.9 51.1 118.1 51 118.4C51 118.6 50.95 118.85 50.85 119.15L48.3 123.05L46.5 127.55C46.4 127.75 46.15 128.1 45.75 128.6C45.45 129 45.05 129.55 44.55 130.25V130.55C44.55 130.95 44.4 131.45 44.1 132.05L44.4 132.2C44.4 132.6 44.2 132.85 43.8 132.95C44.2 133.05 48.6 133.65 57 134.75C59.8 135.15 62.1 135.4 63.9 135.5C65.7 135.7 66.95 135.8 67.65 135.8H69.15V136.4C68.45 137.3 67.55 137.75 66.45 137.75C66.35 137.75 66.25 137.7 66.15 137.6H65.85C65.75 137.6 65.7 137.75 65.7 138.05C65.4 138.15 64.85 138.2 64.05 138.2C64.55 138.2 64.45 138.15 63.75 138.05C63.05 137.95 61.75 137.8 59.85 137.6C59.35 137.6 58.65 137.55 57.75 137.45C56.95 137.45 56 137.4 54.9 137.3C54.7 137.3 54.5 137.2 54.3 137C54.1 136.9 53.75 136.85 53.25 136.85H51.6C51.2 136.65 50.6 136.65 49.8 136.85C49.7 136.85 49.55 136.75 49.35 136.55C49.25 136.45 49.15 136.4 49.05 136.4C48.85 136.4 48.55 136.45 48.15 136.55C47.75 136.65 47.45 136.7 47.25 136.7C47.05 136.7 46.9 136.5 46.8 136.1C46.6 136.3 46.35 136.4 46.05 136.4L45.75 136.1C45.55 136.2 45.05 136.25 44.25 136.25C44.25 136.25 44.05 136.15 43.65 135.95C43.25 135.75 42.8 135.7 42.3 135.8V135.65C42.2 135.65 42.15 135.7 42.15 135.8C42.15 135.9 42.05 136 41.85 136.1C41.75 136.2 41.6 136.5 41.4 137C41.2 137.6 41 138.45 40.8 139.55C39.5 140.45 38.9 142 39 144.2C38.1 144.9 37.65 145.8 37.65 146.9C37.65 148.3 37.35 149.4 36.75 150.2C37.35 150.4 37.9 151.4 38.4 153.2C38.9 155 39.15 156.3 39.15 157.1C39.15 158 38.8 158.75 38.1 159.35C38 159.25 37.85 159.1 37.65 158.9C37.45 158.7 37.25 158.5 37.05 158.3C37.05 158.3 37.05 158.25 37.05 158.15C37.05 158.05 37.1 157.95 37.2 157.85C37.2 157.55 37.15 157.25 37.05 156.95C37.05 156.65 37 156.3 36.9 155.9C37 155.8 37.05 155.55 37.05 155.15C37.05 154.95 36.75 154.05 36.15 152.45C35.45 153.55 35.1 154.55 35.1 155.45C35.1 155.85 35.2 156.25 35.4 156.65C34.8 156.75 34.4 157.2 34.2 158L34.5 158.3C34.1 158.9 34 159.6 34.2 160.4C34.2 160.7 34 160.9 33.6 161C34.1 161.5 34.35 161.8 34.35 161.9C34.35 162.3 34.3 162.55 34.2 162.65H33.3ZM33.75 147.05L35.1 144.35C35.2 144.05 35.3 143.6 35.4 143C35.6 142.5 35.9 141.85 36.3 141.05V140.15L37.65 137.6C37.75 136.8 38 135.95 38.4 135.05C38.2 135.05 37.95 134.95 37.65 134.75C37.35 134.65 37.1 134.6 36.9 134.6C36.8 134.6 36.8 134.55 36.9 134.45C36.9 134.35 36.85 134.3 36.75 134.3C36.55 134.3 36.35 134.35 36.15 134.45C35.95 134.55 35.8 134.6 35.7 134.6C35.6 134.6 35.55 134.5 35.55 134.3H35.4L34.35 134.6C33.95 134.6 33.8 134.45 33.9 134.15C33.5 134.25 33.2 134.3 33 134.3C32.8 134.4 32.6 134.45 32.4 134.45C32.3 134.45 32.15 134.3 31.95 134C31.75 133.8 31.55 133.7 31.35 133.7C31.25 133.7 31 133.85 30.6 134.15C30.2 134.45 29.95 134.6 29.85 134.6C29.65 134.6 29.35 134.4 28.95 134C28.65 133.6 28.4 133.4 28.2 133.4C28.1 133.4 28.05 133.45 28.05 133.55H27.9C27.7 133.55 27.4 133.45 27 133.25C26.7 132.95 26.45 132.8 26.25 132.8C26.15 132.8 25.95 132.9 25.65 133.1C25.35 133.3 25.15 133.4 25.05 133.4C24.85 133.4 24.55 133.25 24.15 132.95C23.85 132.65 23.65 132.5 23.55 132.5V133.55C24.45 134.15 25.75 135.4 27.45 137.3L27.75 138.5C27.75 138.4 27.9 138.3 28.2 138.2C28.5 138.2 29.9 139.9 32.4 143.3C32.5 143.3 32.55 143.35 32.55 143.45L32.4 143.3V144.5C32.4 145.4 32.85 146.25 33.75 147.05ZM211.712 143.75C210.212 143.75 209.562 143.5 209.762 143L207.962 143.6L207.212 143C207.412 143 207.262 142.95 206.762 142.85C206.262 142.85 205.462 142.8 204.362 142.7H203.462C202.762 142.7 202.162 142.85 201.662 143.15L198.362 141.8L197.762 141.95L195.962 141.2L195.512 141.5L192.812 139.85L191.462 140.3L191.012 139.1C190.412 138.3 189.962 138.3 189.662 139.1L188.612 137.45C188.212 138.05 187.762 138.25 187.262 138.05L186.062 135.95L185.462 136.7C184.762 136.7 184.462 136.25 184.562 135.35C182.962 133.85 181.462 132.35 180.062 130.85C178.762 129.35 177.512 127.85 176.312 126.35L176.462 126.05C176.362 125.55 176.162 124.9 175.862 124.1C175.662 123.3 175.362 122.4 174.962 121.4L174.362 121.1L173.912 119.3C173.212 119.3 172.862 116.35 172.862 110.45L173.312 106.4L173.762 106.55L174.512 102.8L175.112 102.35C175.212 99.05 175.912 96.05 177.212 93.35C178.012 91.65 179.662 89.1 182.162 85.7L182.312 84.95C182.912 84.45 183.612 83.85 184.412 83.15C185.312 82.45 186.262 81.6 187.262 80.6V80C187.262 79.3 188.912 77.6 192.212 74.9C192.212 74.2 192.712 73.4 193.712 72.5L194.312 72.95C194.712 72.95 194.962 72.55 195.062 71.75C195.162 70.95 195.312 70.45 195.512 70.25C196.512 69.25 197.712 68.15 199.112 66.95C200.512 65.75 202.162 64.5 204.062 63.2V62.6L206.162 60.8L206.312 61.1L212.462 56.9L213.062 57.2C213.462 57.2 213.662 57 213.662 56.6L214.262 56.75C215.862 54.95 217.412 53.7 218.912 53L219.512 53.3L220.862 52.55C220.862 52.55 220.962 52.5 221.162 52.4C221.462 52.2 221.862 52 222.362 51.8L233.912 47.75C235.612 47.15 237.512 46.7 239.612 46.4C241.712 46.1 244.012 45.9 246.512 45.8L248.012 45.2C249.012 45 250.112 44.85 251.312 44.75C252.612 44.65 253.962 44.55 255.362 44.45L260.462 44.9C262.362 45.5 263.212 45.65 263.012 45.35C265.712 46.05 267.462 46.9 268.262 47.9L268.562 47.75C269.562 47.75 270.112 48.1 270.212 48.8C271.512 48.9 272.762 49.8 273.962 51.5C276.462 48.6 278.712 45.95 280.712 43.55C282.712 41.05 284.412 38.8 285.812 36.8C286.212 39.8 282.862 45.65 275.762 54.35L276.062 55.4V55.85C276.862 57.25 277.262 59 277.262 61.1C277.262 61.1 277.162 61.4 276.962 62C276.762 62.5 276.812 62.8 277.112 62.9L275.762 68.3C275.462 69.4 275.162 70.4 274.862 71.3C274.562 72.1 274.162 72.75 273.662 73.25C273.562 73.35 273.362 73.6 273.062 74C272.862 74.3 272.562 74.8 272.162 75.5C271.462 76.5 270.562 77.6 269.462 78.8C268.462 79.9 267.162 81 265.562 82.1C264.262 83.1 262.962 84.05 261.662 84.95C260.462 85.85 259.212 86.75 257.912 87.65L257.162 87.35L255.962 88.85C255.862 88.75 255.712 88.7 255.512 88.7C255.312 88.7 255.062 88.75 254.762 88.85C254.462 88.95 254.212 88.95 254.012 88.85C250.612 91.45 248.862 92.6 248.762 92.3L244.112 95.15C243.412 95.55 241.912 96.15 239.612 96.95C237.412 97.65 236.212 97.85 236.012 97.55C234.912 97.85 233.662 98.5 232.262 99.5H231.362C227.962 102.9 226.112 105.05 225.812 105.95L224.462 106.85C221.662 108.65 219.412 109.45 217.712 109.25C217.012 109.55 216.662 109.15 216.662 108.05C216.662 106.35 217.612 104.55 219.512 102.65C219.812 101.85 220.162 101.25 220.562 100.85C220.062 100.95 219.412 101.1 218.612 101.3C217.812 101.5 216.862 101.7 215.762 101.9C214.862 102 214.312 101.95 214.112 101.75C214.112 101.45 214.712 101.1 215.912 100.7L222.062 99.65C222.762 99.25 223.262 99.1 223.562 99.2L224.912 98.75L225.362 98.9C226.262 98.4 227.612 98 229.412 97.7C238.012 90.3 244.462 84.3 248.762 79.7C252.662 75.5 256.212 71.6 259.412 68C262.712 64.4 265.662 61.15 268.262 58.25L267.362 57.05C267.362 55.15 266.962 54.2 266.162 54.2C265.862 54.2 265.662 54.25 265.562 54.35L264.062 53L263.762 53.15L259.562 50.3L259.412 49.7L258.212 49.85C257.512 49.35 256.762 49.15 255.962 49.25H255.212C254.012 49.25 253.112 48.95 252.512 48.35L251.462 48.65C250.162 48.35 249.062 48.2 248.162 48.2L234.962 50.3C232.462 50.7 230.162 51.25 228.062 51.95C225.962 52.65 224.012 53.4 222.212 54.2C221.912 54.5 221.162 54.85 219.962 55.25C219.562 55.45 218.762 55.9 217.562 56.6C216.362 57.3 214.812 58.25 212.912 59.45C211.012 60.55 209.462 61.5 208.262 62.3C207.162 63.1 206.362 63.7 205.862 64.1L203.162 66.5L202.562 66.8C201.562 67.8 200.262 69.05 198.662 70.55C197.162 71.95 195.412 73.6 193.412 75.5C192.412 76.5 191.362 78.15 190.262 80.45H189.962C189.662 80.45 189.412 80.75 189.212 81.35C189.112 82.05 189.112 82.5 189.212 82.7L187.562 84.95C187.262 85.35 187.062 86.2 186.962 87.5C184.862 88.7 183.812 90.4 183.812 92.6C182.712 94 182.112 94.7 182.012 94.7L182.912 96.8L181.712 99.2C181.112 102.3 180.912 104.2 181.112 104.9C180.512 105.5 180.412 106.25 180.812 107.15L179.612 108.8C180.412 111 180.812 111.95 180.812 111.65C180.812 112.05 180.562 112.25 180.062 112.25L181.262 113.9L180.362 116L180.512 117.5H181.562C182.762 121.8 183.662 123.85 184.262 123.65C185.162 125.55 186.362 126.75 187.862 127.25V128.45C188.062 128.55 188.462 128.9 189.062 129.5C189.662 130.1 190.362 130.95 191.162 132.05L192.062 131.45L193.112 131.6L194.312 132.95V133.25L195.362 134.6L196.712 134.15C197.612 134.75 198.062 134.9 198.062 134.6L199.862 135.35C200.062 135.15 200.162 135.05 200.162 135.05C200.362 135.05 200.712 135.6 201.212 136.7H202.562L203.012 137.45C204.812 136.85 206.362 136.55 207.662 136.55C209.662 136.55 211.112 137.15 212.012 138.35C212.112 138.25 212.262 138.2 212.462 138.2C212.962 138.2 213.512 138.35 214.112 138.65C214.812 138.95 215.212 139.1 215.312 139.1L215.612 138.95L218.612 138.65L219.212 138.95L219.962 137.75C220.462 138.15 221.312 138.25 222.512 138.05L225.212 137.6C225.212 137.6 225.412 137.5 225.812 137.3C226.312 137.2 227.012 136.95 227.912 136.55C228.212 136.85 228.612 137 229.112 137C230.312 137 230.912 137 230.912 137L234.362 135.8L234.662 136.25L236.612 135.05C236.912 135.15 237.212 135.05 237.512 134.75L239.612 134.45L241.112 135.05L242.462 134.9C242.462 134.7 242.462 134.45 242.462 134.15C242.562 133.95 242.662 133.7 242.762 133.4L243.362 133.55L245.162 132.05L246.062 132.2L249.362 131L249.962 131.45L252.662 129.65L253.112 129.95L256.112 128L256.412 128.15C257.812 127.55 259.612 126.35 261.812 124.55L261.962 124.85C265.862 121.55 271.662 116.95 279.362 111.05L279.512 111.35C280.312 110.65 281.212 109.8 282.212 108.8C283.212 107.8 284.362 106.6 285.662 105.2L286.112 105.35L289.112 101.6L289.862 101.75C289.762 102.35 289.412 103 288.812 103.7C288.212 104.3 287.912 104.75 287.912 105.05C287.912 105.25 287.462 105.8 286.562 106.7C285.762 107.5 285.262 107.9 285.062 107.9C284.862 107.9 281.512 110.8 275.012 116.6C268.612 122.3 265.062 125.15 264.362 125.15C263.462 126.15 261.812 127.2 259.412 128.3C257.212 129.3 255.612 130.3 254.612 131.3L254.462 131L253.712 131.15L249.962 133.4L249.362 133.7C248.062 134.4 246.612 135.1 245.012 135.8C243.512 136.5 241.762 137.1 239.762 137.6L239.462 137.3L236.762 138.95L236.312 138.8C235.012 139 233.462 139.3 231.662 139.7C229.962 140.2 227.962 140.8 225.662 141.5L225.062 141.35C224.362 141.45 223.612 141.55 222.812 141.65C222.112 141.75 221.312 141.85 220.412 141.95C220.412 142.15 220.262 142.25 219.962 142.25C219.562 142.25 219.212 142.2 218.912 142.1C218.712 142 218.662 141.95 218.762 141.95C218.262 142.05 217.162 142.35 215.462 142.85C213.862 143.45 212.612 143.75 211.712 143.75ZM235.562 95.75L236.912 94.85L237.362 95.3L241.412 93.05L242.012 93.35L243.362 92.15L243.962 92.45L245.162 91.7L245.462 92C247.762 89.7 249.862 88.5 251.762 88.4L253.562 87.65L253.412 86.9L254.312 85.7C257.812 83.7 261.262 80.55 264.662 76.25C267.662 72.45 269.262 69.75 269.462 68.15C269.862 68.25 270.062 67.1 270.062 64.7C270.062 64 270.012 63.4 269.912 62.9C269.912 62.3 269.862 61.75 269.762 61.25C267.762 63.35 265.562 65.7 263.162 68.3C260.862 70.9 258.312 73.75 255.512 76.85C254.912 77.55 252.962 79.5 249.662 82.7C246.362 85.8 241.662 90.15 235.562 95.75Z" fill="white"/>
</svg>
