<svg width="326" height="234" viewBox="0 0 326 234" fill="none" xmlns="http://www.w3.org/2000/svg">
<circle cx="122" cy="110" r="95" fill="#721D1D"/>
<circle cx="231" cy="110" r="95" fill="#2E8072"/>
<path d="M60.3 177.65L58.35 177.2V176.45C58.35 176.25 58.25 176 58.05 175.7C57.85 175.4 57.75 175.2 57.75 175.1C57.75 174.7 57.9 174 58.2 173C58.5 172.1 58.6 171.3 58.5 170.6L58.8 170.3C59.3 169.8 59.45 169.2 59.25 168.5L59.7 167C59.6 167 59.55 166.85 59.55 166.55V166.4C60.05 166.2 60.3 166 60.3 165.8C60.3 165.4 60.05 164.85 59.55 164.15C59.15 163.45 58.75 163.15 58.35 163.25C58.05 162.75 57.85 162.25 57.75 161.75C57.75 161.25 57.35 160.65 56.55 159.95C56.65 159.85 56.7 159.7 56.7 159.5C56.7 158.9 56.25 158.3 55.35 157.7C54.75 155.6 53.9 154.3 52.8 153.8L48.75 149.6C48.65 149.6 48.5 149.65 48.3 149.75C48.2 149.85 48.1 149.9 48 149.9C47.6 149.9 46.85 149.6 45.75 149C44.65 148.5 43.75 148.25 43.05 148.25C42.85 148.25 42.8 148.3 42.9 148.4C42.9 148.5 42.9 148.55 42.9 148.55C42.9 148.55 42.9 148.5 42.9 148.4C42.7 148.2 42.5 148.1 42.3 148.1C42.2 148.1 42.1 148.15 42 148.25V148.1C42 147.7 41.6 147.35 40.8 147.05C40.1 146.75 39.75 146.95 39.75 147.65L39.9 147.8L40.05 147.65C39.95 148.05 39.7 148.25 39.3 148.25C39.1 148.25 38.75 148.2 38.25 148.1C37.85 148 37.55 147.95 37.35 147.95C36.55 146.35 36 145.5 35.7 145.4V144.35C36.2 143.55 36.45 142.35 36.45 140.75C36.45 140.15 37.25 139.5 38.85 138.8C41.95 139.8 45.75 141 50.25 142.4C54.85 143.7 60.2 145.15 66.3 146.75C66.7 146.85 66.9 146.6 66.9 146C67 145.3 67.25 144.8 67.65 144.5C67.75 143.8 68.25 142.8 69.15 141.5V141.2C69.55 140.4 69.9 139.5 70.2 138.5C70.5 137.5 71.4 136 72.9 134L73.5 131.6C73.9 131.1 74.15 130.75 74.25 130.55C74.35 130.25 74.55 130 74.85 129.8V129.5C74.85 129.2 74.9 129 75 128.9L75.3 129.05V128C75.9 126.7 76.55 125.4 77.25 124.1C78.05 122.7 78.85 121.25 79.65 119.75C80.45 118.05 82.2 115.05 84.9 110.75C87.6 106.45 91.15 100.95 95.55 94.25C97.65 91.05 99.75 87.85 101.85 84.65C103.95 81.35 106.1 78.1 108.3 74.9C109.8 74.9 110.55 74.2 110.55 72.8C110.55 72.5 110.35 72.3 109.95 72.2C106.45 71.4 102.3 70.95 97.5 70.85L85.2 70.4C84.3 69 83.75 68.3 83.55 68.3C83.35 68.3 83.05 68.95 82.65 70.25C70.25 71.25 60.95 72.9 54.75 75.2C52.75 76 50.75 77.15 48.75 78.65C46.15 80.65 44.85 82.35 44.85 83.75C44.85 83.95 44.9 84.2 45 84.5C45.2 84.7 45.3 84.85 45.3 84.95C45.3 85.15 45.25 85.3 45.15 85.4C45.35 85.8 45.6 86.3 45.9 86.9C46.3 87.4 46.7 87.9 47.1 88.4L49.05 88.85C53.05 90.85 56.45 91.85 59.25 91.85C59.45 91.85 59.65 91.8 59.85 91.7C60.15 91.6 60.4 91.55 60.6 91.55C62.1 91.55 62.85 92 62.85 92.9C62.85 93.5 62.15 93.9 60.75 94.1C60.65 93.7 60.35 93.2 59.85 92.6L59.1 93.5C59 93.4 58.9 93.35 58.8 93.35C58.7 93.35 58.6 93.4 58.5 93.5C58.4 93.5 58.25 93.55 58.05 93.65L57.15 92.75C56.75 93.35 55.9 93.65 54.6 93.65C54.4 93.65 54.25 93.6 54.15 93.5C54.05 93.3 53.95 93.2 53.85 93.2H53.7L53.55 93.35C53.35 93.35 53.25 93.3 53.25 93.2C53.35 93 53.3 92.9 53.1 92.9C53 92.9 52.9 92.95 52.8 93.05C52.8 93.15 52.75 93.2 52.65 93.2C52.25 93.2 51.9 93 51.6 92.6L51.15 93.2C50.45 92.8 50.1 92.55 50.1 92.45C49.8 92.55 49.35 92.6 48.75 92.6C48.65 92.6 48.45 92.5 48.15 92.3C47.95 92.1 47.8 92 47.7 92C45.2 91.2 43.45 90.25 42.45 89.15C41.95 88.85 41.45 88.55 40.95 88.25C40.45 87.85 40.2 87.3 40.2 86.6C40.2 86.5 40.1 86.45 39.9 86.45C39.5 85.65 39.3 85.1 39.3 84.8C39.3 82.4 39.9 80.45 41.1 78.95V78.05L42.3 76.85L42.75 77.3C42.85 77.2 42.85 77 42.75 76.7C42.75 76.5 42.8 76.4 42.9 76.4H43.2C43.2 76.5 43.25 76.55 43.35 76.55C43.45 76.55 43.6 76.35 43.8 75.95C44 75.55 44.2 75.35 44.4 75.35C44.7 75.25 45.2 75.15 45.9 75.05C46.7 74.95 46.95 74.55 46.65 73.85C46.85 74.05 47 74.1 47.1 74C47.9 73.5 48.4 73.25 48.6 73.25C48.8 73.25 48.95 73.3 49.05 73.4H49.35C49.55 73.4 50.05 73.05 50.85 72.35C51.65 71.65 52.1 71.2 52.2 71H53.1L53.55 71.3C53.65 71.3 53.95 71.15 54.45 70.85C54.95 70.45 55.25 70.25 55.35 70.25C55.45 70.25 55.6 70.35 55.8 70.55C56.1 70.65 56.35 70.7 56.55 70.7C57.65 70.7 58.5 70.4 59.1 69.8C59.7 69.2 60.2 68.9 60.6 68.9C60.9 68.9 61.25 69.2 61.65 69.8L64.65 68.45C64.85 68.45 64.85 68.55 64.65 68.75C64.65 68.85 64.7 68.9 64.8 68.9C66 68.6 66.45 68.45 66.15 68.45C66.35 68.45 66.6 68.55 66.9 68.75C67.3 68.85 67.6 68.9 67.8 68.9C67.6 68.9 67.9 68.75 68.7 68.45C68.9 68.35 69.1 68.25 69.3 68.15C69.5 68.05 69.8 67.95 70.2 67.85C70.4 67.85 70.6 67.95 70.8 68.15C71 68.35 71.15 68.45 71.25 68.45C71.45 68.45 71.85 68.3 72.45 68C73.15 67.7 73.6 67.55 73.8 67.55H74.7C75 67.65 75.3 67.7 75.6 67.7C75.8 67.7 76.1 67.6 76.5 67.4C76.9 67.2 77.2 67.1 77.4 67.1C77.6 67.1 77.75 67.15 77.85 67.25H78.45C78.95 67.25 79.6 67.15 80.4 66.95C81.2 66.75 81.8 66.65 82.2 66.65H83.55C84.05 66.65 84.55 66.85 85.05 67.25L85.5 66.95V67.1C85.5 67.2 85.6 67.25 85.8 67.25C85.9 67.25 86.05 67.15 86.25 66.95C86.45 66.75 86.6 66.65 86.7 66.65C86.9 66.65 87.1 66.7 87.3 66.8C87.5 66.9 87.7 66.95 87.9 66.95C88.1 66.95 88.45 66.85 88.95 66.65C89.45 66.35 89.8 66.2 90 66.2C90.2 66.2 90.45 66.35 90.75 66.65C91.05 66.85 91.3 66.95 91.5 66.95C91.6 66.95 91.8 66.9 92.1 66.8C92.5 66.7 92.8 66.65 93 66.65L93.6 67.1C93.8 66.8 94.1 66.65 94.5 66.65H97.65C98.35 66.65 98.95 66.7 99.45 66.8C99.95 66.8 100.4 66.8 100.8 66.8C100.9 66.8 101 66.75 101.1 66.65H101.55C102.05 66.65 102.65 66.7 103.35 66.8C104.05 66.9 104.9 67.05 105.9 67.25C106.9 67.45 107.7 67.6 108.3 67.7C108.9 67.8 109.3 67.85 109.5 67.85C109.9 67.85 110.55 67.9 111.45 68C112.35 68.1 113 68.15 113.4 68.15H114C114.2 68.05 114.45 68 114.75 68C115.05 68 115.4 68.15 115.8 68.45C116.3 67.65 118.6 65.5 122.7 62C126.8 58.4 128.9 56.6 129 56.6C129.1 56.6 130 55.75 131.7 54.05C131.8 54.05 131.85 54.1 131.85 54.2C131.95 54.3 132.05 54.35 132.15 54.35C132.25 54.35 132.3 54.25 132.3 54.05C132.4 53.85 132.55 53.75 132.75 53.75C132.85 53.75 132.95 53.8 133.05 53.9H133.35C133.55 53.9 133.85 53.75 134.25 53.45C134.65 53.15 134.9 53 135 53C135.2 53 135.3 53.1 135.3 53.3C135.4 53.4 135.5 53.4 135.6 53.3C137.9 52.4 139 51.95 138.9 51.95C139.3 51.95 139.6 52.05 139.8 52.25H140.25C140.45 52.25 140.65 52.25 140.85 52.25C141.05 52.25 141.3 52.2 141.6 52.1C142.2 52.7 142.65 53 142.95 53C143.05 53 143.25 52.95 143.55 52.85C143.85 52.75 144.05 52.7 144.15 52.7H144.3H144.15C144.15 52.9 144.5 53.15 145.2 53.45C145.4 53.45 145.7 53.25 146.1 52.85C146.1 53.25 146.25 53.7 146.55 54.2C146.65 54.1 146.7 53.9 146.7 53.6C147.3 54 147.8 54.5 148.2 55.1C148.4 55.6 148.95 56.2 149.85 56.9V57.05C149.85 57.45 150.1 57.9 150.6 58.4C150.6 58.9 150.75 59.65 151.05 60.65C151.45 61.65 151.65 62.4 151.65 62.9C151.65 63.7 151.25 64.1 150.45 64.1C150.15 64.1 150.05 63.75 150.15 63.05C149.95 62.85 149.7 62.75 149.4 62.75C148.7 61.85 148.4 61.1 148.5 60.5C147.7 60 147.3 59.75 147.3 59.75C147.1 59.75 146.95 59.8 146.85 59.9C146.75 59.8 146.7 59.55 146.7 59.15H145.35C145.15 59.15 144.95 59.1 144.75 59C144.65 58.8 144.55 58.7 144.45 58.7C144.25 58.7 143.95 58.75 143.55 58.85C143.15 58.85 142.7 58.9 142.2 59C141.1 59.8 140.3 60.2 139.8 60.2C139.8 60.2 139.75 60.35 139.65 60.65C139.55 60.85 139.4 60.95 139.2 60.95C139 60.95 138.75 60.85 138.45 60.65C138.25 60.45 138.05 60.35 137.85 60.35C137.15 60.35 136.7 60.8 136.5 61.7L136.2 61.4C133.7 64.7 131.45 66.35 129.45 66.35C129.25 66.35 129.15 66.3 129.15 66.2C129.25 66.1 129.2 66.05 129 66.05C128.8 66.05 128.3 66.65 127.5 67.85L126.3 69.8C126.7 70.2 127.25 70.4 127.95 70.4C128.25 70.4 128.5 70.35 128.7 70.25H129.45C129.55 70.25 129.7 70.3 129.9 70.4C130.1 70.5 130.25 70.55 130.35 70.55C130.85 70.55 131.4 70.7 132 71C132.7 71.3 133.2 71.45 133.5 71.45C133.9 71.45 134.4 71.3 135 71C135 71 135.4 71.2 136.2 71.6C137 72 137.65 72.2 138.15 72.2C138.65 72.2 139.05 72.15 139.35 72.05H140.4C140.6 72.05 141.2 72.35 142.2 72.95C143.3 73.55 144.1 73.85 144.6 73.85C144.7 73.85 144.8 73.8 144.9 73.7H145.2C145.3 73.7 145.9 73.95 147 74.45C148.1 74.85 148.75 75.05 148.95 75.05H149.25C149.35 74.95 149.5 74.9 149.7 74.9C150.4 74.9 151.5 75.2 153 75.8C154.5 76.4 156.35 77.25 158.55 78.35L165.45 81.65C165.85 81.65 165.95 81.5 165.75 81.2C166.55 81.6 167.5 82.2 168.6 83C169.7 83.8 170.9 84.75 172.2 85.85C172.4 86.15 172.95 86.6 173.85 87.2C174.85 87.8 175.5 88.1 175.8 88.1V88.25C175.8 88.95 176.4 89.45 177.6 89.75L177.75 90.35L180.3 92.15C180.3 92.25 180.3 92.4 180.3 92.6C180.3 92.8 180.35 93 180.45 93.2C181.55 93.8 182.3 94.6 182.7 95.6C183.1 96.5 183.35 97 183.45 97.1V97.4C183.55 97.5 183.7 97.55 183.9 97.55C184.2 97.55 184.55 97.6 184.95 97.7C185.15 98.2 185.35 98.7 185.55 99.2C185.85 99.6 186.25 99.75 186.75 99.65V99.95C186.75 100.65 187.3 101.95 188.4 103.85V104.9C188.3 105.1 188.25 105.35 188.25 105.65C188.25 106.25 188.5 107.2 189 108.5C189.6 109.8 189.9 110.75 189.9 111.35C189.9 111.55 189.85 111.75 189.75 111.95C189.65 112.05 189.55 112.15 189.45 112.25C189.55 112.35 189.6 113.1 189.6 114.5C189.6 115 189.45 115.5 189.15 116C189.15 116.3 189.15 116.7 189.15 117.2C189.15 117.6 189.2 118.05 189.3 118.55C189.1 118.65 188.7 119 188.1 119.6C188.2 120.1 188.25 120.5 188.25 120.8C188.25 121.1 188.25 121.25 188.25 121.25C188.25 121.65 188.2 121.95 188.1 122.15C187.8 122.25 187.5 122.35 187.2 122.45C186.9 122.55 186.55 122.7 186.15 122.9C186.15 122.9 186.35 123 186.75 123.2C187.15 123.4 187.35 123.55 187.35 123.65C186.85 124.25 186.55 124.65 186.45 124.85C186.55 125.25 186.6 125.55 186.6 125.75C186 126.75 185.7 127.65 185.7 128.45C184.8 128.75 184 129.55 183.3 130.85C182.9 130.85 182.7 130.9 182.7 131L182.85 131.3C182.45 131.6 182.15 131.85 181.95 132.05C181.85 132.25 181.3 132.65 180.3 133.25C179.4 133.65 178.95 134 178.95 134.3C178.15 136.2 176.95 137.5 175.35 138.2C175.25 138.2 175.25 138.55 175.35 139.25C175.25 139.35 174.9 139.4 174.3 139.4C171.1 141.7 169.05 142.85 168.15 142.85C168.05 142.85 167.95 142.8 167.85 142.7C167.85 142.6 167.8 142.55 167.7 142.55C167.6 142.55 167.05 143 166.05 143.9C165.15 144.7 164.65 145.1 164.55 145.1H164.25C164.25 145 164.2 144.95 164.1 144.95C163.9 144.95 163.45 145.1 162.75 145.4C162.05 145.7 161.6 145.9 161.4 146C161.3 146 161.1 146.15 160.8 146.45C160.6 146.65 160.4 146.75 160.2 146.75C160.1 146.75 160.05 146.7 160.05 146.6H159.9C159.8 146.6 159.75 146.65 159.75 146.75C159.75 146.85 159.5 147 159 147.2L155.7 148.55C154.5 149.05 153.45 149.9 152.55 151.1C152.35 150.9 152.15 150.8 151.95 150.8C151.85 150.8 151.7 150.85 151.5 150.95C151.3 151.15 151.15 151.25 151.05 151.25C150.95 151.25 150.9 151.2 150.9 151.1H150.75C150.45 151.1 150 151.25 149.4 151.55C148.9 151.85 148.55 152 148.35 152C148.15 152 148 151.95 147.9 151.85H147.3L147.15 152.15C146.85 152.85 146.35 153.2 145.65 153.2L144.45 152.9C144.35 152.9 144.25 153 144.15 153.2C144.15 153.4 144.1 153.5 144 153.5C143.8 153.5 143.55 153.4 143.25 153.2C142.95 153 142.8 152.9 142.8 152.9C142.5 152.9 142.25 153 142.05 153.2C141.85 153.5 141.7 153.65 141.6 153.65C141.5 153.65 141.35 153.55 141.15 153.35C141.05 153.15 140.9 153.05 140.7 153.05C140.3 153.05 139.95 153.35 139.65 153.95C138.45 154.45 136.65 155 134.25 155.6C131.95 156.2 129.05 156.8 125.55 157.4H121.95C121.55 157.4 120.95 157.5 120.15 157.7C119.45 157.9 118.9 158 118.5 158C118.3 158 118.3 157.9 118.5 157.7H118.35C118.05 157.7 117.8 157.8 117.6 158H117.3C117 158 116.45 157.95 115.65 157.85C114.95 157.75 114.4 157.7 114 157.7C113.9 157.7 113.8 157.75 113.7 157.85C113.6 158.05 113.5 158.15 113.4 158.15H111.75C111.35 158.05 111.05 158 110.85 158C110.65 158 110.45 158 110.25 158C109.85 158 109.3 158 108.6 158C107.9 158 107 158.05 105.9 158.15C104.9 158.25 104.05 158.3 103.35 158.3C102.65 158.3 102.15 158.3 101.85 158.3C101.65 158.3 101.45 158.2 101.25 158C101.05 157.9 100.9 157.85 100.8 157.85C99.7 157.85 98 157.8 95.7 157.7C93.5 157.6 91.85 157.55 90.75 157.55C90.65 157.55 90.5 157.6 90.3 157.7C90.1 157.9 89.95 158 89.85 158C89.75 158 89.6 157.9 89.4 157.7C89.2 157.6 89.05 157.55 88.95 157.55C88.85 157.55 88.7 157.6 88.5 157.7C88.3 157.8 88.15 157.85 88.05 157.85V157.4H87.9C87.6 157.4 87.35 157.45 87.15 157.55H86.4C85.7 157.55 82.65 157.1 77.25 156.2L76.95 155.75C76.85 156.05 76.65 156.2 76.35 156.2C76.25 156.2 76.1 156.1 75.9 155.9C75.7 155.8 75.55 155.75 75.45 155.75H75.15C75.15 155.75 74.95 155.85 74.55 156.05L74.1 155.6L73.65 155.75V155.15C73.85 155.15 74.25 155.05 74.85 154.85C75.45 154.65 75.85 154.55 76.05 154.55C76.15 154.55 76.3 154.65 76.5 154.85C76.7 155.05 76.9 155.15 77.1 155.15C77.2 155.15 77.25 155.1 77.25 155C77.35 154.9 77.45 154.85 77.55 154.85C77.55 154.85 77.8 155.25 78.3 156.05L80.4 154.85C80.6 154.85 80.85 154.95 81.15 155.15C81.55 155.35 81.85 155.45 82.05 155.45L83.85 155.3C86.35 155.5 89.1 155.7 92.1 155.9C95.1 156.1 98.35 156.15 101.85 156.05L111.6 155.75C111.8 156.05 112.05 156.2 112.35 156.2C112.45 156.2 112.5 156.1 112.5 155.9C112.6 155.8 112.75 155.75 112.95 155.75C113.05 155.75 113.15 155.8 113.25 155.9C113.45 156.1 113.65 156.2 113.85 156.2C114.25 156.2 114.85 156 115.65 155.6C116.45 155.3 117.05 155.15 117.45 155.15C117.55 155.15 117.75 155.2 118.05 155.3C118.45 155.4 118.75 155.45 118.95 155.45C119.55 155.45 119.9 155.5 120 155.6C120.2 155.4 120.35 155.15 120.45 154.85C120.75 155.25 121.25 155.45 121.95 155.45C122.55 155.45 123.45 155.25 124.65 154.85C125.85 154.45 126.75 154.25 127.35 154.25C129.85 154.25 133.2 153.45 137.4 151.85C141.6 150.25 144.4 149.45 145.8 149.45C146.8 148.65 147.4 148.25 147.6 148.25C147.7 148.25 147.75 148.3 147.75 148.4H147.9C148 148.4 148.15 148.25 148.35 147.95C148.55 147.65 148.75 147.5 148.95 147.5C149.15 147.5 149.4 147.6 149.7 147.8C150 148 150.2 148.1 150.3 148.1C150.5 148.1 150.9 147.75 151.5 147.05C152.1 146.25 152.5 145.85 152.7 145.85C152.7 145.85 152.75 146 152.85 146.3C154.45 145.3 155.6 144.8 156.3 144.8C156.4 144.8 156.55 144.9 156.75 145.1L159.75 143.6C162.25 142 163.4 141.2 163.2 141.2H163.5C163.6 141.3 163.7 141.35 163.8 141.35C163.6 141.35 164.2 140.85 165.6 139.85C167 138.85 168.6 137.5 170.4 135.8C171.5 135.4 172.9 133.95 174.6 131.45C174.9 131.15 176 129.1 177.9 125.3C179.9 121.3 180.9 117.55 180.9 114.05C180.9 102.55 170.2 91.5 148.8 80.9L146.85 80.45C145.45 80.15 144.45 79.85 143.85 79.55C143.25 79.25 143 79.1 143.1 79.1L142.5 79.25C141.2 78.05 140.2 77.45 139.5 77.45C139.3 77.45 139.05 77.6 138.75 77.9C138.65 77.5 138.35 77.3 137.85 77.3H137.25C137.05 77.4 136.85 77.45 136.65 77.45C135.85 77.45 134.75 77.05 133.35 76.25C132.05 75.35 131.05 74.9 130.35 74.9C129.75 74.9 129.25 74.95 128.85 75.05H127.35C127.25 75.05 127.05 74.85 126.75 74.45C126.45 74.05 126.2 73.85 126 73.85C125.9 73.85 125.8 73.9 125.7 74C125.7 74.1 125.65 74.15 125.55 74.15C125.45 74.15 125.35 74.1 125.25 74C125.25 73.9 125.2 73.85 125.1 73.85C125 73.85 124.9 73.95 124.8 74.15C124.8 74.25 124.7 74.3 124.5 74.3C124.1 74.3 123.6 74.3 123 74.3C122.4 74.2 121.7 74.1 120.9 74L120 74.9C120 74.9 119.7 74.8 119.1 74.6C119 74.7 118.9 74.95 118.8 75.35C118.7 75.65 118.6 76.05 118.5 76.55C118.4 77.15 118.2 77.45 117.9 77.45C117.7 77.45 117.35 77.3 116.85 77C111.45 82.2 104.45 91.05 95.85 103.55C91.85 109.15 88.8 113.7 86.7 117.2C84.6 120.6 83.35 122.85 82.95 123.95V124.25C82.95 124.75 82.6 125.55 81.9 126.65C81.9 126.95 81.7 127.2 81.3 127.4C80.9 127.6 80.6 127.8 80.4 128L78.15 132.8C78.15 132.9 78.1 133.1 78 133.4C78 133.6 77.95 133.85 77.85 134.15L75.3 138.05L73.5 142.55C73.4 142.75 73.15 143.1 72.75 143.6C72.45 144 72.05 144.55 71.55 145.25V145.55C71.55 145.95 71.4 146.45 71.1 147.05L71.4 147.2C71.4 147.6 71.2 147.85 70.8 147.95C71.2 148.05 75.6 148.65 84 149.75C86.8 150.15 89.1 150.4 90.9 150.5C92.7 150.7 93.95 150.8 94.65 150.8H96.15V151.4C95.45 152.3 94.55 152.75 93.45 152.75C93.35 152.75 93.25 152.7 93.15 152.6H92.85C92.75 152.6 92.7 152.75 92.7 153.05C92.4 153.15 91.85 153.2 91.05 153.2C91.55 153.2 91.45 153.15 90.75 153.05C90.05 152.95 88.75 152.8 86.85 152.6C86.35 152.6 85.65 152.55 84.75 152.45C83.95 152.45 83 152.4 81.9 152.3C81.7 152.3 81.5 152.2 81.3 152C81.1 151.9 80.75 151.85 80.25 151.85H78.6C78.2 151.65 77.6 151.65 76.8 151.85C76.7 151.85 76.55 151.75 76.35 151.55C76.25 151.45 76.15 151.4 76.05 151.4C75.85 151.4 75.55 151.45 75.15 151.55C74.75 151.65 74.45 151.7 74.25 151.7C74.05 151.7 73.9 151.5 73.8 151.1C73.6 151.3 73.35 151.4 73.05 151.4L72.75 151.1C72.55 151.2 72.05 151.25 71.25 151.25C71.25 151.25 71.05 151.15 70.65 150.95C70.25 150.75 69.8 150.7 69.3 150.8V150.65C69.2 150.65 69.15 150.7 69.15 150.8C69.15 150.9 69.05 151 68.85 151.1C68.75 151.2 68.6 151.5 68.4 152C68.2 152.6 68 153.45 67.8 154.55C66.5 155.45 65.9 157 66 159.2C65.1 159.9 64.65 160.8 64.65 161.9C64.65 163.3 64.35 164.4 63.75 165.2C64.35 165.4 64.9 166.4 65.4 168.2C65.9 170 66.15 171.3 66.15 172.1C66.15 173 65.8 173.75 65.1 174.35C65 174.25 64.85 174.1 64.65 173.9C64.45 173.7 64.25 173.5 64.05 173.3C64.05 173.3 64.05 173.25 64.05 173.15C64.05 173.05 64.1 172.95 64.2 172.85C64.2 172.55 64.15 172.25 64.05 171.95C64.05 171.65 64 171.3 63.9 170.9C64 170.8 64.05 170.55 64.05 170.15C64.05 169.95 63.75 169.05 63.15 167.45C62.45 168.55 62.1 169.55 62.1 170.45C62.1 170.85 62.2 171.25 62.4 171.65C61.8 171.75 61.4 172.2 61.2 173L61.5 173.3C61.1 173.9 61 174.6 61.2 175.4C61.2 175.7 61 175.9 60.6 176C61.1 176.5 61.35 176.8 61.35 176.9C61.35 177.3 61.3 177.55 61.2 177.65H60.3ZM60.75 162.05L62.1 159.35C62.2 159.05 62.3 158.6 62.4 158C62.6 157.5 62.9 156.85 63.3 156.05V155.15L64.65 152.6C64.75 151.8 65 150.95 65.4 150.05C65.2 150.05 64.95 149.95 64.65 149.75C64.35 149.65 64.1 149.6 63.9 149.6C63.8 149.6 63.8 149.55 63.9 149.45C63.9 149.35 63.85 149.3 63.75 149.3C63.55 149.3 63.35 149.35 63.15 149.45C62.95 149.55 62.8 149.6 62.7 149.6C62.6 149.6 62.55 149.5 62.55 149.3H62.4L61.35 149.6C60.95 149.6 60.8 149.45 60.9 149.15C60.5 149.25 60.2 149.3 60 149.3C59.8 149.4 59.6 149.45 59.4 149.45C59.3 149.45 59.15 149.3 58.95 149C58.75 148.8 58.55 148.7 58.35 148.7C58.25 148.7 58 148.85 57.6 149.15C57.2 149.45 56.95 149.6 56.85 149.6C56.65 149.6 56.35 149.4 55.95 149C55.65 148.6 55.4 148.4 55.2 148.4C55.1 148.4 55.05 148.45 55.05 148.55H54.9C54.7 148.55 54.4 148.45 54 148.25C53.7 147.95 53.45 147.8 53.25 147.8C53.15 147.8 52.95 147.9 52.65 148.1C52.35 148.3 52.15 148.4 52.05 148.4C51.85 148.4 51.55 148.25 51.15 147.95C50.85 147.65 50.65 147.5 50.55 147.5V148.55C51.45 149.15 52.75 150.4 54.45 152.3L54.75 153.5C54.75 153.4 54.9 153.3 55.2 153.2C55.5 153.2 56.9 154.9 59.4 158.3C59.5 158.3 59.55 158.35 59.55 158.45L59.4 158.3V159.5C59.4 160.4 59.85 161.25 60.75 162.05ZM238.712 158.75C237.212 158.75 236.562 158.5 236.762 158L234.962 158.6L234.212 158C234.412 158 234.262 157.95 233.762 157.85C233.262 157.85 232.462 157.8 231.362 157.7H230.462C229.762 157.7 229.162 157.85 228.662 158.15L225.362 156.8L224.762 156.95L222.962 156.2L222.512 156.5L219.812 154.85L218.462 155.3L218.012 154.1C217.412 153.3 216.962 153.3 216.662 154.1L215.612 152.45C215.212 153.05 214.762 153.25 214.262 153.05L213.062 150.95L212.462 151.7C211.762 151.7 211.462 151.25 211.562 150.35C209.962 148.85 208.462 147.35 207.062 145.85C205.762 144.35 204.512 142.85 203.312 141.35L203.462 141.05C203.362 140.55 203.162 139.9 202.862 139.1C202.662 138.3 202.362 137.4 201.962 136.4L201.362 136.1L200.912 134.3C200.212 134.3 199.862 131.35 199.862 125.45L200.312 121.4L200.762 121.55L201.512 117.8L202.112 117.35C202.212 114.05 202.912 111.05 204.212 108.35C205.012 106.65 206.662 104.1 209.162 100.7L209.312 99.95C209.912 99.45 210.612 98.85 211.412 98.15C212.312 97.45 213.262 96.6 214.262 95.6V95C214.262 94.3 215.912 92.6 219.212 89.9C219.212 89.2 219.712 88.4 220.712 87.5L221.312 87.95C221.712 87.95 221.962 87.55 222.062 86.75C222.162 85.95 222.312 85.45 222.512 85.25C223.512 84.25 224.712 83.15 226.112 81.95C227.512 80.75 229.162 79.5 231.062 78.2V77.6L233.162 75.8L233.312 76.1L239.462 71.9L240.062 72.2C240.462 72.2 240.662 72 240.662 71.6L241.262 71.75C242.862 69.95 244.412 68.7 245.912 68L246.512 68.3L247.862 67.55C247.862 67.55 247.962 67.5 248.162 67.4C248.462 67.2 248.862 67 249.362 66.8L260.912 62.75C262.612 62.15 264.512 61.7 266.612 61.4C268.712 61.1 271.012 60.9 273.512 60.8L275.012 60.2C276.012 60 277.112 59.85 278.312 59.75C279.612 59.65 280.962 59.55 282.362 59.45L287.462 59.9C289.362 60.5 290.212 60.65 290.012 60.35C292.712 61.05 294.462 61.9 295.262 62.9L295.562 62.75C296.562 62.75 297.112 63.1 297.212 63.8C298.512 63.9 299.762 64.8 300.962 66.5C303.462 63.6 305.712 60.95 307.712 58.55C309.712 56.05 311.412 53.8 312.812 51.8C313.212 54.8 309.862 60.65 302.762 69.35L303.062 70.4V70.85C303.862 72.25 304.262 74 304.262 76.1C304.262 76.1 304.162 76.4 303.962 77C303.762 77.5 303.812 77.8 304.112 77.9L302.762 83.3C302.462 84.4 302.162 85.4 301.862 86.3C301.562 87.1 301.162 87.75 300.662 88.25C300.562 88.35 300.362 88.6 300.062 89C299.862 89.3 299.562 89.8 299.162 90.5C298.462 91.5 297.562 92.6 296.462 93.8C295.462 94.9 294.162 96 292.562 97.1C291.262 98.1 289.962 99.05 288.662 99.95C287.462 100.85 286.212 101.75 284.912 102.65L284.162 102.35L282.962 103.85C282.862 103.75 282.712 103.7 282.512 103.7C282.312 103.7 282.062 103.75 281.762 103.85C281.462 103.95 281.212 103.95 281.012 103.85C277.612 106.45 275.862 107.6 275.762 107.3L271.112 110.15C270.412 110.55 268.912 111.15 266.612 111.95C264.412 112.65 263.212 112.85 263.012 112.55C261.912 112.85 260.662 113.5 259.262 114.5H258.362C254.962 117.9 253.112 120.05 252.812 120.95L251.462 121.85C248.662 123.65 246.412 124.45 244.712 124.25C244.012 124.55 243.662 124.15 243.662 123.05C243.662 121.35 244.612 119.55 246.512 117.65C246.812 116.85 247.162 116.25 247.562 115.85C247.062 115.95 246.412 116.1 245.612 116.3C244.812 116.5 243.862 116.7 242.762 116.9C241.862 117 241.312 116.95 241.112 116.75C241.112 116.45 241.712 116.1 242.912 115.7L249.062 114.65C249.762 114.25 250.262 114.1 250.562 114.2L251.912 113.75L252.362 113.9C253.262 113.4 254.612 113 256.412 112.7C265.012 105.3 271.462 99.3 275.762 94.7C279.662 90.5 283.212 86.6 286.412 83C289.712 79.4 292.662 76.15 295.262 73.25L294.362 72.05C294.362 70.15 293.962 69.2 293.162 69.2C292.862 69.2 292.662 69.25 292.562 69.35L291.062 68L290.762 68.15L286.562 65.3L286.412 64.7L285.212 64.85C284.512 64.35 283.762 64.15 282.962 64.25H282.212C281.012 64.25 280.112 63.95 279.512 63.35L278.462 63.65C277.162 63.35 276.062 63.2 275.162 63.2L261.962 65.3C259.462 65.7 257.162 66.25 255.062 66.95C252.962 67.65 251.012 68.4 249.212 69.2C248.912 69.5 248.162 69.85 246.962 70.25C246.562 70.45 245.762 70.9 244.562 71.6C243.362 72.3 241.812 73.25 239.912 74.45C238.012 75.55 236.462 76.5 235.262 77.3C234.162 78.1 233.362 78.7 232.862 79.1L230.162 81.5L229.562 81.8C228.562 82.8 227.262 84.05 225.662 85.55C224.162 86.95 222.412 88.6 220.412 90.5C219.412 91.5 218.362 93.15 217.262 95.45H216.962C216.662 95.45 216.412 95.75 216.212 96.35C216.112 97.05 216.112 97.5 216.212 97.7L214.562 99.95C214.262 100.35 214.062 101.2 213.962 102.5C211.862 103.7 210.812 105.4 210.812 107.6C209.712 109 209.112 109.7 209.012 109.7L209.912 111.8L208.712 114.2C208.112 117.3 207.912 119.2 208.112 119.9C207.512 120.5 207.412 121.25 207.812 122.15L206.612 123.8C207.412 126 207.812 126.95 207.812 126.65C207.812 127.05 207.562 127.25 207.062 127.25L208.262 128.9L207.362 131L207.512 132.5H208.562C209.762 136.8 210.662 138.85 211.262 138.65C212.162 140.55 213.362 141.75 214.862 142.25V143.45C215.062 143.55 215.462 143.9 216.062 144.5C216.662 145.1 217.362 145.95 218.162 147.05L219.062 146.45L220.112 146.6L221.312 147.95V148.25L222.362 149.6L223.712 149.15C224.612 149.75 225.062 149.9 225.062 149.6L226.862 150.35C227.062 150.15 227.162 150.05 227.162 150.05C227.362 150.05 227.712 150.6 228.212 151.7H229.562L230.012 152.45C231.812 151.85 233.362 151.55 234.662 151.55C236.662 151.55 238.112 152.15 239.012 153.35C239.112 153.25 239.262 153.2 239.462 153.2C239.962 153.2 240.512 153.35 241.112 153.65C241.812 153.95 242.212 154.1 242.312 154.1L242.612 153.95L245.612 153.65L246.212 153.95L246.962 152.75C247.462 153.15 248.312 153.25 249.512 153.05L252.212 152.6C252.212 152.6 252.412 152.5 252.812 152.3C253.312 152.2 254.012 151.95 254.912 151.55C255.212 151.85 255.612 152 256.112 152C257.312 152 257.912 152 257.912 152L261.362 150.8L261.662 151.25L263.612 150.05C263.912 150.15 264.212 150.05 264.512 149.75L266.612 149.45L268.112 150.05L269.462 149.9C269.462 149.7 269.462 149.45 269.462 149.15C269.562 148.95 269.662 148.7 269.762 148.4L270.362 148.55L272.162 147.05L273.062 147.2L276.362 146L276.962 146.45L279.662 144.65L280.112 144.95L283.112 143L283.412 143.15C284.812 142.55 286.612 141.35 288.812 139.55L288.962 139.85C292.862 136.55 298.662 131.95 306.362 126.05L306.512 126.35C307.312 125.65 308.212 124.8 309.212 123.8C310.212 122.8 311.362 121.6 312.662 120.2L313.112 120.35L316.112 116.6L316.862 116.75C316.762 117.35 316.412 118 315.812 118.7C315.212 119.3 314.912 119.75 314.912 120.05C314.912 120.25 314.462 120.8 313.562 121.7C312.762 122.5 312.262 122.9 312.062 122.9C311.862 122.9 308.512 125.8 302.012 131.6C295.612 137.3 292.062 140.15 291.362 140.15C290.462 141.15 288.812 142.2 286.412 143.3C284.212 144.3 282.612 145.3 281.612 146.3L281.462 146L280.712 146.15L276.962 148.4L276.362 148.7C275.062 149.4 273.612 150.1 272.012 150.8C270.512 151.5 268.762 152.1 266.762 152.6L266.462 152.3L263.762 153.95L263.312 153.8C262.012 154 260.462 154.3 258.662 154.7C256.962 155.2 254.962 155.8 252.662 156.5L252.062 156.35C251.362 156.45 250.612 156.55 249.812 156.65C249.112 156.75 248.312 156.85 247.412 156.95C247.412 157.15 247.262 157.25 246.962 157.25C246.562 157.25 246.212 157.2 245.912 157.1C245.712 157 245.662 156.95 245.762 156.95C245.262 157.05 244.162 157.35 242.462 157.85C240.862 158.45 239.612 158.75 238.712 158.75ZM262.562 110.75L263.912 109.85L264.362 110.3L268.412 108.05L269.012 108.35L270.362 107.15L270.962 107.45L272.162 106.7L272.462 107C274.762 104.7 276.862 103.5 278.762 103.4L280.562 102.65L280.412 101.9L281.312 100.7C284.812 98.7 288.262 95.55 291.662 91.25C294.662 87.45 296.262 84.75 296.462 83.15C296.862 83.25 297.062 82.1 297.062 79.7C297.062 79 297.012 78.4 296.912 77.9C296.912 77.3 296.862 76.75 296.762 76.25C294.762 78.35 292.562 80.7 290.162 83.3C287.862 85.9 285.312 88.75 282.512 91.85C281.912 92.55 279.962 94.5 276.662 97.7C273.362 100.8 268.662 105.15 262.562 110.75Z" fill="white"/>
</svg>
