<svg width="810" height="169" viewBox="0 0 810 169" fill="none" xmlns="http://www.w3.org/2000/svg">
<path d="M33.4 168.2L30.8 167.6V166.6C30.8 166.333 30.6667 166 30.4 165.6C30.1333 165.2 30 164.933 30 164.8C30 164.267 30.2 163.333 30.6 162C31 160.8 31.1333 159.733 31 158.8L31.4 158.4C32.0667 157.733 32.2667 156.933 32 156L32.6 154C32.4667 154 32.4 153.8 32.4 153.4V153.2C33.0667 152.933 33.4 152.667 33.4 152.4C33.4 151.867 33.0667 151.133 32.4 150.2C31.8667 149.267 31.3333 148.867 30.8 149C30.4 148.333 30.1333 147.667 30 147C30 146.333 29.4667 145.533 28.4 144.6C28.5333 144.467 28.6 144.267 28.6 144C28.6 143.2 28 142.4 26.8 141.6C26 138.8 24.8667 137.067 23.4 136.4L18 130.8C17.8667 130.8 17.6667 130.867 17.4 131C17.2667 131.133 17.1333 131.2 17 131.2C16.4667 131.2 15.4667 130.8 14 130C12.5333 129.333 11.3333 129 10.4 129C10.1333 129 10.0667 129.067 10.2 129.2C10.2 129.333 10.2 129.4 10.2 129.4C10.2 129.4 10.2 129.333 10.2 129.2C9.93333 128.933 9.66667 128.8 9.4 128.8C9.26667 128.8 9.13333 128.867 9 129V128.8C9 128.267 8.46667 127.8 7.4 127.4C6.46667 127 6 127.267 6 128.2L6.2 128.4L6.4 128.2C6.26667 128.733 5.93333 129 5.4 129C5.13333 129 4.66667 128.933 4 128.8C3.46667 128.667 3.06667 128.6 2.8 128.6C1.73333 126.467 1 125.333 0.6 125.2V123.8C1.26667 122.733 1.6 121.133 1.6 119C1.6 118.2 2.66667 117.333 4.8 116.4C8.93333 117.733 14 119.333 20 121.2C26.1333 122.933 33.2667 124.867 41.4 127C41.9333 127.133 42.2 126.8 42.2 126C42.3333 125.067 42.6667 124.4 43.2 124C43.3333 123.067 44 121.733 45.2 120V119.6C45.7333 118.533 46.2 117.333 46.6 116C47 114.667 48.2 112.667 50.2 110L51 106.8C51.5333 106.133 51.8667 105.667 52 105.4C52.1333 105 52.4 104.667 52.8 104.4V104C52.8 103.6 52.8667 103.333 53 103.2L53.4 103.4V102C54.2 100.267 55.0667 98.5333 56 96.8C57.0667 94.9333 58.1333 93 59.2 91C60.2667 88.7333 62.6 84.7333 66.2 79C69.8 73.2667 74.5333 65.9333 80.4 57C83.2 52.7333 86 48.4667 88.8 44.2C91.6 39.8 94.4667 35.4667 97.4 31.2C99.4 31.2 100.4 30.2667 100.4 28.4C100.4 28 100.133 27.7333 99.6 27.6C94.9333 26.5333 89.4 25.9333 83 25.8L66.6 25.2C65.4 23.3333 64.6667 22.4 64.4 22.4C64.1333 22.4 63.7333 23.2667 63.2 25C46.6667 26.3333 34.2667 28.5333 26 31.6C23.3333 32.6667 20.6667 34.2 18 36.2C14.5333 38.8667 12.8 41.1333 12.8 43C12.8 43.2667 12.8667 43.6 13 44C13.2667 44.2667 13.4 44.4667 13.4 44.6C13.4 44.8667 13.3333 45.0667 13.2 45.2C13.4667 45.7333 13.8 46.4 14.2 47.2C14.7333 47.8667 15.2667 48.5333 15.8 49.2L18.4 49.8C23.7333 52.4667 28.2667 53.8 32 53.8C32.2667 53.8 32.5333 53.7333 32.8 53.6C33.2 53.4667 33.5333 53.4 33.8 53.4C35.8 53.4 36.8 54 36.8 55.2C36.8 56 35.8667 56.5333 34 56.8C33.8667 56.2667 33.4667 55.6 32.8 54.8L31.8 56C31.6667 55.8667 31.5333 55.8 31.4 55.8C31.2667 55.8 31.1333 55.8667 31 56C30.8667 56 30.6667 56.0667 30.4 56.2L29.2 55C28.6667 55.8 27.5333 56.2 25.8 56.2C25.5333 56.2 25.3333 56.1333 25.2 56C25.0667 55.7333 24.9333 55.6 24.8 55.6H24.6L24.4 55.8C24.1333 55.8 24 55.7333 24 55.6C24.1333 55.3333 24.0667 55.2 23.8 55.2C23.6667 55.2 23.5333 55.2667 23.4 55.4C23.4 55.5333 23.3333 55.6 23.2 55.6C22.6667 55.6 22.2 55.3333 21.8 54.8L21.2 55.6C20.2667 55.0667 19.8 54.7333 19.8 54.6C19.4 54.7333 18.8 54.8 18 54.8C17.8667 54.8 17.6 54.6667 17.2 54.4C16.9333 54.1333 16.7333 54 16.6 54C13.2667 52.9333 10.9333 51.6667 9.6 50.2C8.93333 49.8 8.26667 49.4 7.6 49C6.93333 48.4667 6.6 47.7333 6.6 46.8C6.6 46.6667 6.46667 46.6 6.2 46.6C5.66667 45.5333 5.4 44.8 5.4 44.4C5.4 41.2 6.2 38.6 7.8 36.6V35.4L9.4 33.8L10 34.4C10.1333 34.2667 10.1333 34 10 33.6C10 33.3333 10.0667 33.2 10.2 33.2H10.6C10.6 33.3333 10.6667 33.4 10.8 33.4C10.9333 33.4 11.1333 33.1333 11.4 32.6C11.6667 32.0667 11.9333 31.8 12.2 31.8C12.6 31.6667 13.2667 31.5333 14.2 31.4C15.2667 31.2667 15.6 30.7333 15.2 29.8C15.4667 30.0667 15.6667 30.1333 15.8 30C16.8667 29.3333 17.5333 29 17.8 29C18.0667 29 18.2667 29.0667 18.4 29.2H18.8C19.0667 29.2 19.7333 28.7333 20.8 27.8C21.8667 26.8667 22.4667 26.2667 22.6 26H23.8L24.4 26.4C24.5333 26.4 24.9333 26.2 25.6 25.8C26.2667 25.2667 26.6667 25 26.8 25C26.9333 25 27.1333 25.1333 27.4 25.4C27.8 25.5333 28.1333 25.6 28.4 25.6C29.8667 25.6 31 25.2 31.8 24.4C32.6 23.6 33.2667 23.2 33.8 23.2C34.2 23.2 34.6667 23.6 35.2 24.4L39.2 22.6C39.4667 22.6 39.4667 22.7333 39.2 23C39.2 23.1333 39.2667 23.2 39.4 23.2C41 22.8 41.6 22.6 41.2 22.6C41.4667 22.6 41.8 22.7333 42.2 23C42.7333 23.1333 43.1333 23.2 43.4 23.2C43.1333 23.2 43.5333 23 44.6 22.6C44.8667 22.4667 45.1333 22.3333 45.4 22.2C45.6667 22.0667 46.0667 21.9333 46.6 21.8C46.8667 21.8 47.1333 21.9333 47.4 22.2C47.6667 22.4667 47.8667 22.6 48 22.6C48.2667 22.6 48.8 22.4 49.6 22C50.5333 21.6 51.1333 21.4 51.4 21.4H52.6C53 21.5333 53.4 21.6 53.8 21.6C54.0667 21.6 54.4667 21.4667 55 21.2C55.5333 20.9333 55.9333 20.8 56.2 20.8C56.4667 20.8 56.6667 20.8667 56.8 21H57.6C58.2667 21 59.1333 20.8667 60.2 20.6C61.2667 20.3333 62.0667 20.2 62.6 20.2H64.4C65.0667 20.2 65.7333 20.4667 66.4 21L67 20.6V20.8C67 20.9333 67.1333 21 67.4 21C67.5333 21 67.7333 20.8667 68 20.6C68.2667 20.3333 68.4667 20.2 68.6 20.2C68.8667 20.2 69.1333 20.2667 69.4 20.4C69.6667 20.5333 69.9333 20.6 70.2 20.6C70.4667 20.6 70.9333 20.4667 71.6 20.2C72.2667 19.8 72.7333 19.6 73 19.6C73.2667 19.6 73.6 19.8 74 20.2C74.4 20.4667 74.7333 20.6 75 20.6C75.1333 20.6 75.4 20.5333 75.8 20.4C76.3333 20.2667 76.7333 20.2 77 20.2L77.8 20.8C78.0667 20.4 78.4667 20.2 79 20.2H83.2C84.1333 20.2 84.9333 20.2667 85.6 20.4C86.2667 20.4 86.8667 20.4 87.4 20.4C87.5333 20.4 87.6667 20.3333 87.8 20.2H88.4C89.0667 20.2 89.8667 20.2667 90.8 20.4C91.7333 20.5333 92.8667 20.7333 94.2 21C95.5333 21.2667 96.6 21.4667 97.4 21.6C98.2 21.7333 98.7333 21.8 99 21.8C99.5333 21.8 100.4 21.8667 101.6 22C102.8 22.1333 103.667 22.2 104.2 22.2H105C105.267 22.0667 105.6 22 106 22C106.4 22 106.867 22.2 107.4 22.6C108.067 21.5333 111.133 18.6667 116.6 14C122.067 9.19999 124.867 6.79999 125 6.79999C125.133 6.79999 126.333 5.66666 128.6 3.4C128.733 3.4 128.8 3.46666 128.8 3.59999C128.933 3.73333 129.067 3.79999 129.2 3.79999C129.333 3.79999 129.4 3.66666 129.4 3.4C129.533 3.13333 129.733 2.99999 130 2.99999C130.133 2.99999 130.267 3.06666 130.4 3.2H130.8C131.067 3.2 131.467 3 132 2.6C132.533 2.19999 132.867 1.99999 133 1.99999C133.267 1.99999 133.4 2.13333 133.4 2.4C133.533 2.53333 133.667 2.53333 133.8 2.4C136.867 1.2 138.333 0.599997 138.2 0.599997C138.733 0.599997 139.133 0.733329 139.4 0.999992H140C140.267 0.999992 140.533 0.999992 140.8 0.999992C141.067 0.999992 141.4 0.933326 141.8 0.799994C142.6 1.59999 143.2 1.99999 143.6 1.99999C143.733 1.99999 144 1.93333 144.4 1.79999C144.8 1.66666 145.067 1.6 145.2 1.6H145.4H145.2C145.2 1.86666 145.667 2.19999 146.6 2.6C146.867 2.6 147.267 2.33333 147.8 1.79999C147.8 2.33333 148 2.93333 148.4 3.59999C148.533 3.46666 148.6 3.2 148.6 2.79999C149.4 3.33333 150.067 3.99999 150.6 4.79999C150.867 5.46666 151.6 6.26666 152.8 7.2V7.39999C152.8 7.93333 153.133 8.53333 153.8 9.19999C153.8 9.86666 154 10.8667 154.4 12.2C154.933 13.5333 155.2 14.5333 155.2 15.2C155.2 16.2667 154.667 16.8 153.6 16.8C153.2 16.8 153.067 16.3333 153.2 15.4C152.933 15.1333 152.6 15 152.2 15C151.267 13.8 150.867 12.8 151 12C149.933 11.3333 149.4 11 149.4 11C149.133 11 148.933 11.0667 148.8 11.2C148.667 11.0667 148.6 10.7333 148.6 10.2H146.8C146.533 10.2 146.267 10.1333 146 10C145.867 9.73332 145.733 9.59999 145.6 9.59999C145.333 9.59999 144.933 9.66666 144.4 9.8C143.867 9.8 143.267 9.86666 142.6 10C141.133 11.0667 140.067 11.6 139.4 11.6C139.4 11.6 139.333 11.8 139.2 12.2C139.067 12.4667 138.867 12.6 138.6 12.6C138.333 12.6 138 12.4667 137.6 12.2C137.333 11.9333 137.067 11.8 136.8 11.8C135.867 11.8 135.267 12.4 135 13.6L134.6 13.2C131.267 17.6 128.267 19.8 125.6 19.8C125.333 19.8 125.2 19.7333 125.2 19.6C125.333 19.4667 125.267 19.4 125 19.4C124.733 19.4 124.067 20.2 123 21.8L121.4 24.4C121.933 24.9333 122.667 25.2 123.6 25.2C124 25.2 124.333 25.1333 124.6 25H125.6C125.733 25 125.933 25.0667 126.2 25.2C126.467 25.3333 126.667 25.4 126.8 25.4C127.467 25.4 128.2 25.6 129 26C129.933 26.4 130.6 26.6 131 26.6C131.533 26.6 132.2 26.4 133 26C133 26 133.533 26.2667 134.6 26.8C135.667 27.3333 136.533 27.6 137.2 27.6C137.867 27.6 138.4 27.5333 138.8 27.4H140.2C140.467 27.4 141.267 27.8 142.6 28.6C144.067 29.4 145.133 29.8 145.8 29.8C145.933 29.8 146.067 29.7333 146.2 29.6H146.6C146.733 29.6 147.533 29.9333 149 30.6C150.467 31.1333 151.333 31.4 151.6 31.4H152C152.133 31.2667 152.333 31.2 152.6 31.2C153.533 31.2 155 31.6 157 32.4C159 33.2 161.467 34.3333 164.4 35.8L173.6 40.2C174.133 40.2 174.267 40 174 39.6C175.067 40.1333 176.333 40.9333 177.8 42C179.267 43.0667 180.867 44.3333 182.6 45.8C182.867 46.2 183.6 46.8 184.8 47.6C186.133 48.4 187 48.8 187.4 48.8V49C187.4 49.9333 188.2 50.6 189.8 51L190 51.8L193.4 54.2C193.4 54.3333 193.4 54.5333 193.4 54.8C193.4 55.0667 193.467 55.3333 193.6 55.6C195.067 56.4 196.067 57.4667 196.6 58.8C197.133 60 197.467 60.6667 197.6 60.8V61.2C197.733 61.3333 197.933 61.4 198.2 61.4C198.6 61.4 199.067 61.4667 199.6 61.6C199.867 62.2667 200.133 62.9333 200.4 63.6C200.8 64.1333 201.333 64.3333 202 64.2V64.6C202 65.5333 202.733 67.2667 204.2 69.8V71.2C204.067 71.4667 204 71.8 204 72.2C204 73 204.333 74.2667 205 76C205.8 77.7333 206.2 79 206.2 79.8C206.2 80.0667 206.133 80.3333 206 80.6C205.867 80.7333 205.733 80.8667 205.6 81C205.733 81.1333 205.8 82.1333 205.8 84C205.8 84.6667 205.6 85.3333 205.2 86C205.2 86.4 205.2 86.9333 205.2 87.6C205.2 88.1333 205.267 88.7333 205.4 89.4C205.133 89.5333 204.6 90 203.8 90.8C203.933 91.4667 204 92 204 92.4C204 92.8 204 93 204 93C204 93.5333 203.933 93.9333 203.8 94.2C203.4 94.3333 203 94.4667 202.6 94.6C202.2 94.7333 201.733 94.9333 201.2 95.2C201.2 95.2 201.467 95.3333 202 95.6C202.533 95.8667 202.8 96.0667 202.8 96.2C202.133 97 201.733 97.5333 201.6 97.8C201.733 98.3333 201.8 98.7333 201.8 99C201 100.333 200.6 101.533 200.6 102.6C199.4 103 198.333 104.067 197.4 105.8C196.867 105.8 196.6 105.867 196.6 106L196.8 106.4C196.267 106.8 195.867 107.133 195.6 107.4C195.467 107.667 194.733 108.2 193.4 109C192.2 109.533 191.6 110 191.6 110.4C190.533 112.933 188.933 114.667 186.8 115.6C186.667 115.6 186.667 116.067 186.8 117C186.667 117.133 186.2 117.2 185.4 117.2C181.133 120.267 178.4 121.8 177.2 121.8C177.067 121.8 176.933 121.733 176.8 121.6C176.8 121.467 176.733 121.4 176.6 121.4C176.467 121.4 175.733 122 174.4 123.2C173.2 124.267 172.533 124.8 172.4 124.8H172C172 124.667 171.933 124.6 171.8 124.6C171.533 124.6 170.933 124.8 170 125.2C169.067 125.6 168.467 125.867 168.2 126C168.067 126 167.8 126.2 167.4 126.6C167.133 126.867 166.867 127 166.6 127C166.467 127 166.4 126.933 166.4 126.8H166.2C166.067 126.8 166 126.867 166 127C166 127.133 165.667 127.333 165 127.6L160.6 129.4C159 130.067 157.6 131.2 156.4 132.8C156.133 132.533 155.867 132.4 155.6 132.4C155.467 132.4 155.267 132.467 155 132.6C154.733 132.867 154.533 133 154.4 133C154.267 133 154.2 132.933 154.2 132.8H154C153.6 132.8 153 133 152.2 133.4C151.533 133.8 151.067 134 150.8 134C150.533 134 150.333 133.933 150.2 133.8H149.4L149.2 134.2C148.8 135.133 148.133 135.6 147.2 135.6L145.6 135.2C145.467 135.2 145.333 135.333 145.2 135.6C145.2 135.867 145.133 136 145 136C144.733 136 144.4 135.867 144 135.6C143.6 135.333 143.4 135.2 143.4 135.2C143 135.2 142.667 135.333 142.4 135.6C142.133 136 141.933 136.2 141.8 136.2C141.667 136.2 141.467 136.067 141.2 135.8C141.067 135.533 140.867 135.4 140.6 135.4C140.067 135.4 139.6 135.8 139.2 136.6C137.6 137.267 135.2 138 132 138.8C128.933 139.6 125.067 140.4 120.4 141.2H115.6C115.067 141.2 114.267 141.333 113.2 141.6C112.267 141.867 111.533 142 111 142C110.733 142 110.733 141.867 111 141.6H110.8C110.4 141.6 110.067 141.733 109.8 142H109.4C109 142 108.267 141.933 107.2 141.8C106.267 141.667 105.533 141.6 105 141.6C104.867 141.6 104.733 141.667 104.6 141.8C104.467 142.067 104.333 142.2 104.2 142.2H102C101.467 142.067 101.067 142 100.8 142C100.533 142 100.267 142 100 142C99.4667 142 98.7333 142 97.8 142C96.8667 142 95.6667 142.067 94.2 142.2C92.8667 142.333 91.7333 142.4 90.8 142.4C89.8667 142.4 89.2 142.4 88.8 142.4C88.5333 142.4 88.2667 142.267 88 142C87.7333 141.867 87.5333 141.8 87.4 141.8C85.9333 141.8 83.6667 141.733 80.6 141.6C77.6667 141.467 75.4667 141.4 74 141.4C73.8667 141.4 73.6667 141.467 73.4 141.6C73.1333 141.867 72.9333 142 72.8 142C72.6667 142 72.4667 141.867 72.2 141.6C71.9333 141.467 71.7333 141.4 71.6 141.4C71.4667 141.4 71.2667 141.467 71 141.6C70.7333 141.733 70.5333 141.8 70.4 141.8V141.2H70.2C69.8 141.2 69.4667 141.267 69.2 141.4H68.2C67.2667 141.4 63.2 140.8 56 139.6L55.6 139C55.4667 139.4 55.2 139.6 54.8 139.6C54.6667 139.6 54.4667 139.467 54.2 139.2C53.9333 139.067 53.7333 139 53.6 139H53.2C53.2 139 52.9333 139.133 52.4 139.4L51.8 138.8L51.2 139V138.2C51.4667 138.2 52 138.067 52.8 137.8C53.6 137.533 54.1333 137.4 54.4 137.4C54.5333 137.4 54.7333 137.533 55 137.8C55.2667 138.067 55.5333 138.2 55.8 138.2C55.9333 138.2 56 138.133 56 138C56.1333 137.867 56.2667 137.8 56.4 137.8C56.4 137.8 56.7333 138.333 57.4 139.4L60.2 137.8C60.4667 137.8 60.8 137.933 61.2 138.2C61.7333 138.467 62.1333 138.6 62.4 138.6L64.8 138.4C68.1333 138.667 71.8 138.933 75.8 139.2C79.8 139.467 84.1333 139.533 88.8 139.4L101.8 139C102.067 139.4 102.4 139.6 102.8 139.6C102.933 139.6 103 139.467 103 139.2C103.133 139.067 103.333 139 103.6 139C103.733 139 103.867 139.067 104 139.2C104.267 139.467 104.533 139.6 104.8 139.6C105.333 139.6 106.133 139.333 107.2 138.8C108.267 138.4 109.067 138.2 109.6 138.2C109.733 138.2 110 138.267 110.4 138.4C110.933 138.533 111.333 138.6 111.6 138.6C112.4 138.6 112.867 138.667 113 138.8C113.267 138.533 113.467 138.2 113.6 137.8C114 138.333 114.667 138.6 115.6 138.6C116.4 138.6 117.6 138.333 119.2 137.8C120.8 137.267 122 137 122.8 137C126.133 137 130.6 135.933 136.2 133.8C141.8 131.667 145.533 130.6 147.4 130.6C148.733 129.533 149.533 129 149.8 129C149.933 129 150 129.067 150 129.2H150.2C150.333 129.2 150.533 129 150.8 128.6C151.067 128.2 151.333 128 151.6 128C151.867 128 152.2 128.133 152.6 128.4C153 128.667 153.267 128.8 153.4 128.8C153.667 128.8 154.2 128.333 155 127.4C155.8 126.333 156.333 125.8 156.6 125.8C156.6 125.8 156.667 126 156.8 126.4C158.933 125.067 160.467 124.4 161.4 124.4C161.533 124.4 161.733 124.533 162 124.8L166 122.8C169.333 120.667 170.867 119.6 170.6 119.6H171C171.133 119.733 171.267 119.8 171.4 119.8C171.133 119.8 171.933 119.133 173.8 117.8C175.667 116.467 177.8 114.667 180.2 112.4C181.667 111.867 183.533 109.933 185.8 106.6C186.2 106.2 187.667 103.467 190.2 98.4C192.867 93.0667 194.2 88.0667 194.2 83.4C194.2 68.0667 179.933 53.3333 151.4 39.2L148.8 38.6C146.933 38.2 145.6 37.8 144.8 37.4C144 37 143.667 36.8 143.8 36.8L143 37C141.267 35.4 139.933 34.6 139 34.6C138.733 34.6 138.4 34.8 138 35.2C137.867 34.6667 137.467 34.4 136.8 34.4H136C135.733 34.5333 135.467 34.6 135.2 34.6C134.133 34.6 132.667 34.0667 130.8 33C129.067 31.8 127.733 31.2 126.8 31.2C126 31.2 125.333 31.2667 124.8 31.4H122.8C122.667 31.4 122.4 31.1333 122 30.6C121.6 30.0667 121.267 29.8 121 29.8C120.867 29.8 120.733 29.8667 120.6 30C120.6 30.1333 120.533 30.2 120.4 30.2C120.267 30.2 120.133 30.1333 120 30C120 29.8667 119.933 29.8 119.8 29.8C119.667 29.8 119.533 29.9333 119.4 30.2C119.4 30.3333 119.267 30.4 119 30.4C118.467 30.4 117.8 30.4 117 30.4C116.2 30.2667 115.267 30.1333 114.2 30L113 31.2C113 31.2 112.6 31.0667 111.8 30.8C111.667 30.9333 111.533 31.2667 111.4 31.8C111.267 32.2 111.133 32.7333 111 33.4C110.867 34.2 110.6 34.6 110.2 34.6C109.933 34.6 109.467 34.4 108.8 34C101.6 40.9333 92.2667 52.7333 80.8 69.4C75.4667 76.8667 71.4 82.9333 68.6 87.6C65.8 92.1333 64.1333 95.1333 63.6 96.6V97C63.6 97.6667 63.1333 98.7333 62.2 100.2C62.2 100.6 61.9333 100.933 61.4 101.2C60.8667 101.467 60.4667 101.733 60.2 102L57.2 108.4C57.2 108.533 57.1333 108.8 57 109.2C57 109.467 56.9333 109.8 56.8 110.2L53.4 115.4L51 121.4C50.8667 121.667 50.5333 122.133 50 122.8C49.6 123.333 49.0667 124.067 48.4 125V125.4C48.4 125.933 48.2 126.6 47.8 127.4L48.2 127.6C48.2 128.133 47.9333 128.467 47.4 128.6C47.9333 128.733 53.8 129.533 65 131C68.7333 131.533 71.8 131.867 74.2 132C76.6 132.267 78.2667 132.4 79.2 132.4H81.2V133.2C80.2667 134.4 79.0667 135 77.6 135C77.4667 135 77.3333 134.933 77.2 134.8H76.8C76.6667 134.8 76.6 135 76.6 135.4C76.2 135.533 75.4667 135.6 74.4 135.6C75.0667 135.6 74.9333 135.533 74 135.4C73.0667 135.267 71.3333 135.067 68.8 134.8C68.1333 134.8 67.2 134.733 66 134.6C64.9333 134.6 63.6667 134.533 62.2 134.4C61.9333 134.4 61.6667 134.267 61.4 134C61.1333 133.867 60.6667 133.8 60 133.8H57.8C57.2667 133.533 56.4667 133.533 55.4 133.8C55.2667 133.8 55.0667 133.667 54.8 133.4C54.6667 133.267 54.5333 133.2 54.4 133.2C54.1333 133.2 53.7333 133.267 53.2 133.4C52.6667 133.533 52.2667 133.6 52 133.6C51.7333 133.6 51.5333 133.333 51.4 132.8C51.1333 133.067 50.8 133.2 50.4 133.2L50 132.8C49.7333 132.933 49.0667 133 48 133C48 133 47.7333 132.867 47.2 132.6C46.6667 132.333 46.0667 132.267 45.4 132.4V132.2C45.2667 132.2 45.2 132.267 45.2 132.4C45.2 132.533 45.0667 132.667 44.8 132.8C44.6667 132.933 44.4667 133.333 44.2 134C43.9333 134.8 43.6667 135.933 43.4 137.4C41.6667 138.6 40.8667 140.667 41 143.6C39.8 144.533 39.2 145.733 39.2 147.2C39.2 149.067 38.8 150.533 38 151.6C38.8 151.867 39.5333 153.2 40.2 155.6C40.8667 158 41.2 159.733 41.2 160.8C41.2 162 40.7333 163 39.8 163.8C39.6667 163.667 39.4667 163.467 39.2 163.2C38.9333 162.933 38.6667 162.667 38.4 162.4C38.4 162.4 38.4 162.333 38.4 162.2C38.4 162.067 38.4667 161.933 38.6 161.8C38.6 161.4 38.5333 161 38.4 160.6C38.4 160.2 38.3333 159.733 38.2 159.2C38.3333 159.067 38.4 158.733 38.4 158.2C38.4 157.933 38 156.733 37.2 154.6C36.2667 156.067 35.8 157.4 35.8 158.6C35.8 159.133 35.9333 159.667 36.2 160.2C35.4 160.333 34.8667 160.933 34.6 162L35 162.4C34.4667 163.2 34.3333 164.133 34.6 165.2C34.6 165.6 34.3333 165.867 33.8 166C34.4667 166.667 34.8 167.067 34.8 167.2C34.8 167.733 34.7333 168.067 34.6 168.2H33.4ZM34 147.4L35.8 143.8C35.9333 143.4 36.0667 142.8 36.2 142C36.4667 141.333 36.8667 140.467 37.4 139.4V138.2L39.2 134.8C39.3333 133.733 39.6667 132.6 40.2 131.4C39.9333 131.4 39.6 131.267 39.2 131C38.8 130.867 38.4667 130.8 38.2 130.8C38.0667 130.8 38.0667 130.733 38.2 130.6C38.2 130.467 38.1333 130.4 38 130.4C37.7333 130.4 37.4667 130.467 37.2 130.6C36.9333 130.733 36.7333 130.8 36.6 130.8C36.4667 130.8 36.4 130.667 36.4 130.4H36.2L34.8 130.8C34.2667 130.8 34.0667 130.6 34.2 130.2C33.6667 130.333 33.2667 130.4 33 130.4C32.7333 130.533 32.4667 130.6 32.2 130.6C32.0667 130.6 31.8667 130.4 31.6 130C31.3333 129.733 31.0667 129.6 30.8 129.6C30.6667 129.6 30.3333 129.8 29.8 130.2C29.2667 130.6 28.9333 130.8 28.8 130.8C28.5333 130.8 28.1333 130.533 27.6 130C27.2 129.467 26.8667 129.2 26.6 129.2C26.4667 129.2 26.4 129.267 26.4 129.4H26.2C25.9333 129.4 25.5333 129.267 25 129C24.6 128.6 24.2667 128.4 24 128.4C23.8667 128.4 23.6 128.533 23.2 128.8C22.8 129.067 22.5333 129.2 22.4 129.2C22.1333 129.2 21.7333 129 21.2 128.6C20.8 128.2 20.5333 128 20.4 128V129.4C21.6 130.2 23.3333 131.867 25.6 134.4L26 136C26 135.867 26.2 135.733 26.6 135.6C27 135.6 28.8667 137.867 32.2 142.4C32.3333 142.4 32.4 142.467 32.4 142.6L32.2 142.4V144C32.2 145.2 32.8 146.333 34 147.4ZM223.683 131.6C223.816 131.6 223.683 131.4 223.283 131C223.016 131.267 222.416 131.4 221.483 131.4C221.216 131.4 220.816 131.267 220.283 131C219.883 130.867 219.616 130.8 219.483 130.8C219.349 130.8 219.016 130.867 218.483 131C218.083 131.133 217.749 131.2 217.483 131.2C217.349 131.2 216.949 131.067 216.283 130.8C215.616 130.667 215.149 130.6 214.883 130.6C214.749 128.867 213.216 128.2 210.283 128.6V128.2C210.283 127.267 210.083 126.533 209.683 126C209.283 125.467 208.949 124.6 208.683 123.4C208.549 123.267 208.283 123 207.883 122.6C207.616 122.067 207.483 121.067 207.483 119.6C207.483 119.6 207.616 119.333 207.883 118.8C208.016 118.667 207.883 118.333 207.483 117.8C207.616 117.667 207.883 116.6 208.283 114.6C208.416 113.933 208.483 113.4 208.483 113C208.616 112.6 208.683 112.267 208.683 112C207.883 111.333 207.483 110.733 207.483 110.2L208.083 108.8C208.216 108.933 208.683 109 209.483 109H210.283C210.549 108.6 210.816 108.2 211.083 107.8C211.483 107.267 211.949 106.733 212.483 106.2C213.283 106.2 214.016 105.467 214.683 104L214.483 103.2C214.616 102.933 214.749 102.733 214.883 102.6C214.883 102.6 214.949 102.6 215.083 102.6C215.083 102.6 215.016 102.6 214.883 102.6C215.016 102.6 215.216 102.667 215.483 102.8C215.616 102.667 215.883 102.4 216.283 102C216.683 101.6 217.349 101.067 218.283 100.4C218.683 99.8667 219.349 99.2 220.283 98.4C221.883 97.3333 222.749 96.8 222.883 96.8C223.149 96.8 223.749 96.4 224.683 95.6C224.949 95.7333 225.149 95.8667 225.283 96C225.416 96 225.483 96 225.483 96C225.749 96 226.816 95.5333 228.683 94.6C228.549 95.1333 228.683 95.4 229.083 95.4H230.483C231.149 95 231.483 94.8 231.483 94.8C232.816 94.8 234.416 95.5333 236.283 97C236.416 97.1333 236.616 97.2 236.883 97.2V100.4C236.616 100.4 236.349 100.267 236.083 100L235.283 101.8C235.816 102.6 236.083 103 236.083 103C235.816 103.133 235.149 104.267 234.083 106.4V108C233.549 108 233.083 108.067 232.683 108.2C230.549 109.667 229.349 110.4 229.083 110.4H228.683C228.549 110.267 228.416 110.2 228.283 110.2C227.749 110.2 227.016 110.467 226.083 111C225.949 111.133 225.749 111.4 225.483 111.8C225.216 112.067 224.883 112.2 224.483 112.2H224.283C224.283 112.067 224.216 112 224.083 112C223.816 112 223.083 112.267 221.883 112.8C220.816 113.2 220.216 113.4 220.083 113.4H219.683C219.549 113.267 219.416 113.2 219.283 113.2L218.683 113.8H217.483C216.949 113.8 216.549 113.667 216.283 113.4H213.683C213.683 113.933 213.483 114.733 213.083 115.8C212.816 116.867 212.683 117.467 212.683 117.6C212.683 118 213.149 118.933 214.083 120.4C214.216 120.533 214.483 120.867 214.883 121.4C215.283 121.8 215.883 122.333 216.683 123C216.949 123.533 217.349 124.067 217.883 124.6C218.149 124.733 218.416 124.8 218.683 124.8C218.949 124.8 219.283 124.867 219.683 125L220.283 125.8C220.683 125.533 221.283 125.533 222.083 125.8L223.083 126.4C223.749 126.4 224.083 126.4 224.083 126.4C224.083 126.267 224.083 126.2 224.083 126.2C224.216 126.333 224.216 126.4 224.083 126.4C224.216 126.533 224.349 126.6 224.483 126.6C224.616 126.6 224.749 126.533 224.883 126.4C225.149 126.133 225.349 126 225.483 126H225.883C225.883 126.133 225.949 126.2 226.083 126.2C226.483 126.2 226.949 125.933 227.483 125.4C227.883 125.533 228.283 125.533 228.683 125.4L228.883 125.6V126.2C228.616 126.333 228.283 126.533 227.883 126.8C227.483 127.067 226.949 127.333 226.283 127.6V128.4C226.283 128.533 226.549 128.6 227.083 128.6C229.349 128.6 231.149 127.933 232.483 126.6C232.749 126.733 232.949 126.867 233.083 127C233.216 127 233.283 127 233.283 127C233.549 127 233.683 126.867 233.683 126.6H234.683C234.949 126.467 235.349 126.133 235.883 125.6C236.416 124.933 236.949 124.6 237.483 124.6L238.283 124.8L238.883 123.2L239.483 123.6C239.749 123.333 240.349 123.2 241.283 123.2C241.283 123.2 241.283 123.133 241.283 123C241.283 122.867 241.349 122.733 241.483 122.6C242.816 122.333 244.483 121.2 246.483 119.2H247.283L250.283 116.8C250.283 116.533 250.483 116.133 250.883 115.6C251.016 115.6 251.216 115.733 251.483 116L253.283 113.6C253.683 113.6 254.149 113.4 254.683 113L255.283 113.6L253.883 115.4C253.083 115.933 252.083 116.733 250.883 117.8C249.683 118.867 248.349 120.133 246.883 121.6C245.949 121.6 245.416 121.867 245.283 122.4C244.083 122.933 243.283 123.533 242.883 124.2L242.283 123.6C242.149 123.733 241.749 124.067 241.083 124.6C240.549 125 239.616 125.533 238.283 126.2C238.016 126.467 237.616 126.867 237.083 127.4C236.549 127.8 236.016 128 235.483 128C235.216 128 235.149 127.933 235.283 127.8H235.083C234.549 127.8 234.016 128 233.483 128.4C232.949 128.8 232.683 129.133 232.683 129.4C232.549 129.4 232.349 129.267 232.083 129C230.349 129.933 229.349 130.4 229.083 130.4H228.683L228.483 130.2L225.483 131C225.483 131 225.483 130.933 225.483 130.8C225.483 130.667 225.416 130.533 225.283 130.4L224.683 131.2C224.549 131.2 224.349 131.267 224.083 131.4C223.949 131.533 223.816 131.6 223.683 131.6ZM218.883 111.4C218.749 111 218.883 110.8 219.283 110.8C219.416 110.8 219.483 110.867 219.483 111H219.883C220.016 111 220.283 110.8 220.683 110.4C221.216 110 221.549 109.8 221.683 109.8C221.816 109.8 222.016 109.867 222.283 110C222.549 110.133 222.749 110.2 222.883 110.2C222.616 110.2 222.949 109.733 223.883 108.8L224.483 109.2C227.549 107.2 229.083 105.467 229.083 104C229.083 102.267 228.216 101.2 226.483 100.8C224.883 100.4 223.349 100 221.883 99.6C221.616 99.8667 221.349 100 221.083 100C220.416 101.067 219.683 101.867 218.883 102.4C218.616 102.4 217.816 103.067 216.483 104.4C216.483 104.533 216.083 105.133 215.283 106.2C215.016 107.133 214.749 107.867 214.483 108.4C214.349 108.933 214.283 109.333 214.283 109.6C214.816 110.533 215.349 111 215.883 111H216.083C216.216 110.867 216.349 110.8 216.483 110.8C217.149 110.8 217.949 111 218.883 111.4ZM256.083 112.6V112.2C256.083 111.4 256.483 110.933 257.283 110.8C257.149 111.333 256.749 111.933 256.083 112.6ZM249.489 132.4C249.356 132.267 249.289 132.067 249.289 131.8C249.289 131.267 249.489 130.733 249.889 130.2C250.289 129.667 250.489 129.4 250.489 129.4L250.689 125.8C250.956 125.4 251.489 124.867 252.289 124.2C252.289 123.8 252.422 123.2 252.689 122.4C252.556 122.533 252.489 121.933 252.489 120.6C252.756 120.333 252.956 120.067 253.089 119.8C252.956 119.667 252.889 118.467 252.889 116.2C252.889 116.333 253.089 116 253.489 115.2C253.356 114.667 253.356 114 253.489 113.2C253.756 112.667 253.956 112.133 254.089 111.6C254.222 110.933 254.222 110.333 254.089 109.8L253.689 105.4C253.556 103.533 253.556 102.533 253.689 102.4C253.422 101.733 253.489 101.133 253.889 100.6C253.489 98.3333 252.022 96.3333 249.489 94.6V93.6C249.622 93.6 249.822 93.5333 250.089 93.4C250.356 93.2667 250.556 93.2 250.689 93.2C250.822 93.2 251.089 93.3333 251.489 93.6C252.022 93.8667 252.356 94 252.489 94H255.089C254.956 94.1333 255.356 94.8667 256.289 96.2C257.356 97.4 258.089 98.7333 258.489 100.2C258.489 100.6 258.556 101.067 258.689 101.6C258.956 102.133 259.289 102.467 259.689 102.6C260.089 103.8 260.289 105.067 260.289 106.4C260.289 106.933 260.222 107.533 260.089 108.2C260.089 108.733 260.022 109.333 259.889 110L260.489 110.6C260.889 111.533 261.089 112.533 261.089 113.6L261.689 113.8L265.889 107.6C265.889 107.467 266.289 107.133 267.089 106.6C267.356 106.067 267.756 105.533 268.289 105C268.956 105 269.289 104.8 269.289 104.4C269.289 103.867 269.956 103.067 271.289 102C271.689 100.133 272.756 99.1333 274.489 99V98.8C274.489 98 274.822 97.6 275.489 97.6C276.156 97.4667 276.556 96.9333 276.689 96L278.489 94.8C278.622 94.5333 278.756 94.2667 278.889 94C279.022 93.7333 279.222 93.4 279.489 93C279.622 92.8667 280.156 92.6667 281.089 92.4C283.489 90.8 284.689 89.9333 284.689 89.8C284.822 89.6667 285.089 89.4667 285.489 89.2C285.756 89.0667 286.022 88.9333 286.289 88.8C286.556 88.6667 286.889 88.5333 287.289 88.4C287.289 88.4 287.422 88.2 287.689 87.8C287.956 87.2667 288.222 87 288.489 87C288.622 87 288.689 87.0667 288.689 87.2H288.889C288.622 87.2 289.356 86.7333 291.089 85.8C291.489 85.5333 291.889 85.3333 292.289 85.2C292.822 85.0667 293.356 84.9333 293.889 84.8C294.689 83.4667 295.822 82.8 297.289 82.8C297.422 82.8 297.489 82.8667 297.489 83C297.622 83.1333 297.822 83.2 298.089 83.2C298.222 83.2 298.356 83.1333 298.489 83C298.756 82.8667 298.956 82.8 299.089 82.8C300.422 82.8 301.422 83.5333 302.089 85C303.156 87.4 303.689 89.9333 303.689 92.6V97.8C303.689 97.9333 303.822 98.1333 304.089 98.4C304.089 98.6667 304.022 98.9333 303.889 99.2L304.889 106L306.089 112.2C306.356 112.733 306.689 113.333 307.089 114C307.489 114.533 307.822 115.2 308.089 116L308.689 116.4C309.356 116.667 309.689 117.333 309.689 118.4L312.089 119.4C312.756 120.067 313.022 120.333 312.889 120.2L315.289 119C315.556 119.133 315.756 119.267 315.889 119.4C316.022 119.4 316.089 119.4 316.089 119.4C316.356 119.4 316.889 118.933 317.689 118C318.622 117.067 319.156 116.4 319.289 116C319.556 116 319.756 116.067 319.889 116.2C320.022 116.467 320.089 116.667 320.089 116.8C320.222 116.933 320.289 117 320.289 117C320.289 117.4 318.956 118.933 316.289 121.6C316.156 121.6 316.022 121.733 315.889 122C315.756 122.133 315.622 122.2 315.489 122.2C315.222 122.2 315.156 122.133 315.289 122H315.089C314.822 122 314.556 122.4 314.289 123.2L311.689 125V125.8C310.222 126.333 309.156 126.733 308.489 127C307.822 127.267 307.556 127.4 307.689 127.4C307.156 127.4 306.822 127.267 306.689 127C306.556 126.733 306.422 126.6 306.289 126.6H306.089C306.089 126.733 306.022 126.8 305.889 126.8C305.089 126.8 304.556 126.4 304.289 125.6L304.089 125.8C303.556 125.8 302.889 125.333 302.089 124.4C301.289 123.333 300.756 122.667 300.489 122.4L300.889 122C300.889 121.733 300.622 121.533 300.089 121.4C299.689 119.8 299.356 119.133 299.089 119.4C298.822 119.667 298.622 118.933 298.489 117.2C298.622 116.933 298.689 116.6 298.689 116.2C298.689 115.667 298.756 115.133 298.889 114.6C298.222 113.4 297.489 113 296.689 113.4C296.689 113.133 296.556 112.6 296.289 111.8C296.422 111.533 296.489 111.4 296.489 111.4C296.489 111.267 296.489 111.2 296.489 111.2C296.089 110.533 296.022 109.667 296.289 108.6L296.689 106.8L296.089 106V104.2C295.556 103.933 295.156 103.667 294.889 103.4C294.622 103 294.356 102.733 294.089 102.6V99.2C294.356 98.5333 294.556 98.1333 294.689 98L293.689 96.6V96.2C293.689 95.8 293.556 95.3333 293.289 94.8C293.022 94.1333 292.689 93.3333 292.289 92.4C291.489 91.6 290.689 91.2 289.889 91.2C289.756 91.2 289.622 91.2667 289.489 91.4C289.489 91.5333 289.356 91.6 289.089 91.6C289.356 91.6 289.156 91.4667 288.489 91.2C288.222 91.4667 288.089 91.7333 288.089 92C287.156 92 286.489 92.2 286.089 92.6C285.689 93 285.489 93.2 285.489 93.2C285.356 93.2 285.289 93.1333 285.289 93C285.422 92.8667 285.422 92.8 285.289 92.8C285.289 92.8 284.356 93.6 282.489 95.2C282.222 95.2 282.022 95.2667 281.889 95.4C281.222 95.8 280.889 96.2 280.889 96.6C279.156 97.1333 277.156 98.9333 274.889 102C274.756 102 274.422 102.133 273.889 102.4C272.956 103.467 271.756 104.8 270.289 106.4C268.822 107.867 267.156 109.6 265.289 111.6C264.889 112 264.556 112.4 264.289 112.8C264.022 113.2 263.289 114.2 262.089 115.8C261.956 115.933 261.756 116.133 261.489 116.4C261.222 116.667 260.956 116.933 260.689 117.2C260.689 117.6 260.422 118.267 259.889 119.2C259.489 120 259.289 121.133 259.289 122.6C259.289 122.867 258.956 123.467 258.289 124.4C257.622 125.333 257.289 126.067 257.289 126.6C257.289 126.867 257.356 127.067 257.489 127.2C257.089 127.333 256.489 127.6 255.689 128C255.022 128.4 254.622 128.6 254.489 128.6C254.356 128.6 254.222 128.533 254.089 128.4C254.089 128.267 254.022 128.2 253.889 128.2C253.622 128.2 253.222 128.467 252.689 129V129.4C252.689 129.8 252.489 130.4 252.089 131.2C251.156 131.2 250.689 131.6 250.689 132.4C250.156 132.533 249.756 132.533 249.489 132.4ZM331.527 130.8C331.127 130.8 330.793 130.467 330.527 129.8C330.393 129.933 330.327 130.067 330.327 130.2H329.127L328.527 129C328.393 129.133 328.327 129.267 328.327 129.4C328.193 129.4 327.993 129.267 327.727 129L327.127 129.4C326.46 128.733 325.727 127.867 324.927 126.8C324.26 125.6 323.86 124.4 323.727 123.2C323.593 123.067 323.327 123 322.927 123V121.4C323.46 121.267 323.793 120.2 323.927 118.2L324.527 117.4V116.4L324.127 116L324.927 115.4L327.127 109.2L329.127 107V106.4C330.727 105.333 331.727 104.2 332.127 103C332.66 103 332.927 102.733 332.927 102.2C334.66 101.667 335.327 100.8 334.927 99.6C335.193 99.4667 335.327 99.4 335.327 99.4C335.46 99.4 335.527 99.4 335.527 99.4C335.66 99.4 335.927 99.5333 336.327 99.8C336.727 99.9333 336.993 100 337.127 100C337.393 100 337.593 99.9333 337.727 99.8C337.993 99.6667 338.193 99.6 338.327 99.6C338.86 100.133 339.193 100.4 339.327 100.4C339.993 100.4 340.66 100.133 341.327 99.6C341.327 99.7333 341.393 99.9333 341.527 100.2C341.66 100.467 341.727 100.667 341.727 100.8C341.727 101.467 341.46 102.067 340.927 102.6L341.527 103.4C341.527 104.333 340.727 105.8 339.127 107.8C337.527 109.533 336.393 110.533 335.727 110.8C335.593 110.933 335.46 111.2 335.327 111.6C335.193 111.867 334.993 112.133 334.727 112.4H334.327L333.927 112L331.927 114.6C331.927 115.133 331.393 116.133 330.327 117.6C329.927 117.733 329.593 117.8 329.327 117.8C329.193 117.667 329.127 117.667 329.127 117.8V119.2C329.793 120.4 330.06 121.2 329.927 121.6C329.527 122.4 329.327 122.867 329.327 123C329.327 122.867 329.727 123.4 330.527 124.6C330.393 124.733 330.327 125.2 330.327 126C331.393 126.133 332.793 126.733 334.527 127.8H335.327C335.86 127.8 336.193 127.733 336.327 127.6C336.593 127.333 336.727 127.2 336.727 127.2C336.86 127.2 336.927 127.267 336.927 127.4H337.127C337.26 127.4 337.593 127.133 338.127 126.6C338.66 126.067 338.993 125.8 339.127 125.8C339.26 125.8 339.327 125.867 339.327 126C339.327 126.133 339.393 126.2 339.527 126.2C339.66 126.2 339.927 126.133 340.327 126C340.727 125.867 341.06 125.8 341.327 125.8V125.2C341.193 125.067 341.193 125 341.327 125V125.2C341.46 125.333 341.927 125.533 342.727 125.8L342.527 125C342.927 124.867 343.26 124.467 343.527 123.8C344.193 123.8 344.793 123.733 345.327 123.6C345.993 123.333 346.327 123 346.327 122.6H347.927C347.927 122.867 348.06 123 348.327 123C349.66 123 350.393 122.133 350.527 120.4L351.727 119.2C351.727 119.2 351.86 119.333 352.127 119.6C352.66 119.067 353.127 118.8 353.527 118.8C353.66 118.8 353.727 118.867 353.727 119C353.86 119.133 354.06 119.2 354.327 119.2C354.727 119.2 355.127 119 355.527 118.6C355.927 118.2 356.127 117.933 356.127 117.8C356.393 117.533 356.727 117.267 357.127 117C357.527 116.733 357.86 116.333 358.127 115.8L359.327 116.4C359.193 116.267 360.593 115.067 363.527 112.8C364.86 112.267 365.527 111.867 365.527 111.6C366.06 111.6 366.593 111.4 367.127 111V110.4L369.927 109V110.2H368.927C368.793 110.333 368.727 110.733 368.727 111.4L364.127 115C363.86 115 363.793 114.933 363.927 114.8H363.727C363.86 114.8 363.26 115.467 361.927 116.8C361.66 117.067 361.127 117.2 360.327 117.2C358.593 118.8 357.927 119.533 358.327 119.4C358.193 119.267 358.06 119.2 357.927 119.2C357.793 119.333 357.727 119.6 357.727 120H357.527C356.993 120 356.193 120.533 355.127 121.6C354.993 121.6 354.793 121.6 354.527 121.6C354.26 121.6 353.993 121.667 353.727 121.8C353.193 122.2 352.527 122.733 351.727 123.4C351.06 123.933 350.26 124.6 349.327 125.4H348.127C347.193 126.2 346.527 126.6 346.127 126.6H345.527C345.393 126.467 345.26 126.4 345.127 126.4C344.993 126.4 344.46 126.667 343.527 127.2C342.727 127.733 342.193 128 341.927 128H341.727C341.727 127.867 341.66 127.8 341.527 127.8C341.393 127.8 340.86 128.067 339.927 128.6C339.127 129 338.66 129.2 338.527 129.2H338.327C338.327 129.067 338.193 129 337.927 129C337.793 129 337.593 129.067 337.327 129.2C337.193 129.333 336.86 129.467 336.327 129.6C334.993 130.267 334.593 130.6 335.127 130.6C334.993 130.6 334.593 130.533 333.927 130.4C333.26 130.267 332.793 130.2 332.527 130.2L331.527 130.8ZM371.527 108.6C371.393 108.6 371.26 108.533 371.127 108.4C371.127 108.133 371.06 108 370.927 108L373.727 105C374.26 105 374.527 105.133 374.527 105.4C374.527 105.933 374.06 106.6 373.127 107.4C372.327 108.067 371.793 108.467 371.527 108.6ZM345.327 92.6C344.26 92.6 342.793 91.8667 340.927 90.4C339.327 88.8 338.527 87.5333 338.527 86.6C340.127 85.9333 341.86 85.2 343.727 84.4C345.727 83.4667 347.793 82.4667 349.927 81.4H350.127C349.593 82.8667 348.86 84.0667 347.927 85L348.327 86.4V87.6L347.327 88.8C347.327 91.3333 346.66 92.6 345.327 92.6ZM354.7 138.2C354.3 138.067 353.9 137.533 353.5 136.6C353.367 136.333 353.433 135.733 353.7 134.8C353.7 134.667 353.567 134.467 353.3 134.2C353.567 133.933 353.833 133.6 354.1 133.2C354.233 132.933 354.433 132.533 354.7 132C354.833 132 355.033 132.133 355.3 132.4C355.567 132.133 356.367 131.8 357.7 131.4C357.433 131.133 357.433 131 357.7 131C357.833 131.133 358.167 131.2 358.7 131.2C358.833 131.2 359.167 131 359.7 130.6C360.1 130.333 360.433 130.2 360.7 130.2H361.3C361.833 130.2 361.967 130.067 361.7 129.8C362.1 129.533 362.567 129.267 363.1 129C363.633 128.733 364.167 128.467 364.7 128.2H365.3L365.7 127.6H365.9C366.567 127.6 367.3 127.4 368.1 127C369.033 126.6 369.567 126.4 369.7 126.4C369.833 126.4 370.1 126.6 370.5 127L370.9 126.6C371.567 126.333 372.167 125.733 372.7 124.8C373.5 125.067 374.033 125.133 374.3 125C374.167 125 374.9 124.667 376.5 124C376.767 124 377.233 123.8 377.9 123.4C378.567 123 379.833 122.267 381.7 121.2L379.9 116.8C379.9 116.533 379.833 116.333 379.7 116.2C380.1 115.8 380.167 115.333 379.9 114.8C379.767 114.4 379.433 114.067 378.9 113.8L379.1 113.6C378.3 112.533 377.967 111.6 378.1 110.8C377.967 110.533 377.567 110.533 376.9 110.8L376.3 110C376.3 109.867 376.567 109.333 377.1 108.4C376.7 108 376.3 107.8 375.9 107.8L375.1 106.2C375.1 105.933 375.3 105.533 375.7 105C375.3 104.867 375.033 104.533 374.9 104L375.3 100.6C375.433 100.333 375.567 99.9333 375.7 99.4C375.833 98.7333 376.1 97.8667 376.5 96.8L379.9 91.6C379.9 91.6 380.633 90.8667 382.1 89.4C384.767 86.8667 386.433 85.6 387.1 85.6V85.8H387.3C387.433 85.8 387.5 85.7333 387.5 85.6C388.567 85.3333 389.367 84.9333 389.9 84.4C390.567 83.8667 391.367 83.2667 392.3 82.6H392.7C393.233 82.6 393.5 82.4 393.5 82L394.1 82.2L394.5 81.8C394.5 81.9333 394.567 82.0667 394.7 82.2C394.833 82.0667 394.9 81.9333 394.9 81.8C394.9 81.6667 394.967 81.5333 395.1 81.4C394.967 81.4 394.967 81.3333 395.1 81.2V81.4C395.1 81.5333 395.167 81.5333 395.3 81.4H396.7C396.7 81.4 396.833 81 397.1 80.2C397.1 80.3333 397.167 80.4667 397.3 80.6C397.3 80.6 397.567 80.4667 398.1 80.2C398.767 79.8 399.367 79.6 399.9 79.6C400.433 79.6 400.7 79.7333 400.7 80C400.833 80.2667 401.167 80.4 401.7 80.4H401.9C401.767 80.2667 401.833 80.2 402.1 80.2C402.767 80.2 403.633 80.6667 404.7 81.6C405.9 82.4 406.567 82.9333 406.7 83.2L406.3 84.6L404.3 85.2C404.033 85.0667 403.5 85 402.7 85C402.433 84.0667 402.033 83.6 401.5 83.6C401.367 83.7333 401.167 83.8 400.9 83.8C400.633 83.8 400.367 83.8667 400.1 84C399.7 84 399.3 83.7333 398.9 83.2C398.767 83.2 398.633 83.1333 398.5 83C397.967 83.8 397.233 84.2667 396.3 84.4L395.1 83.8C394.967 83.8 394.433 84 393.5 84.4C392.7 84.8 392.233 84.9333 392.1 84.8C391.833 85.7333 390.967 86.6667 389.5 87.6L387.3 91.8C385.433 92.4667 384.5 93.5333 384.5 95C384.5 95.5333 384.7 96.2 385.1 97C385.1 97 384.967 97.4 384.7 98.2C384.567 98.2 384.3 98.3333 383.9 98.6C383.5 98.8667 383.3 99.2667 383.3 99.8C383.3 100.6 383.567 100.867 384.1 100.6C384.367 100.733 384.567 101.533 384.7 103C384.7 103.267 384.567 103.533 384.3 103.8C384.433 103.933 384.633 104.133 384.9 104.4C385.167 104.667 385.5 105.133 385.9 105.8C386.167 106.067 386.167 106.4 385.9 106.8C386.033 106.8 386.167 107.133 386.3 107.8H387.1C387.767 108.6 388.167 109.733 388.3 111.2C389.233 112.267 389.767 113.2 389.9 114V115.8C389.633 115.8 389.433 115.867 389.3 116L389.9 117C390.433 116.6 390.967 116.2 391.5 115.8C392.033 115.4 392.633 115.067 393.3 114.8C393.433 114.8 393.633 114.933 393.9 115.2C394.033 115.067 394.167 114.933 394.3 114.8C394.567 114.533 394.767 114.2 394.9 113.8C395.833 113.533 397.5 112.4 399.9 110.4L400.5 110.6C401.567 110.2 402.9 108.8 404.5 106.4C405.033 106.4 405.367 106.467 405.5 106.6C405.5 106.2 405.833 105.8 406.5 105.4C406.9 105.4 407.233 105.467 407.5 105.6L407.7 107.2C407.7 107.333 407.367 107.533 406.7 107.8C406.167 107.933 405.1 108.733 403.5 110.2C403.233 110.467 402.167 111.133 400.3 112.2L399.7 113C399.3 113.267 398.767 113.667 398.1 114.2C397.567 114.6 396.9 115.067 396.1 115.6C395.567 115.733 394.9 116.067 394.1 116.6C393.433 117 392.633 117.533 391.7 118.2C391.833 118.333 391.9 118.467 391.9 118.6C391.9 118.733 391.767 118.933 391.5 119.2C391.233 119.2 391.1 119.067 391.1 118.8C390.967 118.933 390.767 119.133 390.5 119.4C390.233 119.667 390.1 120 390.1 120.4C390.1 120.933 390.1 121.333 390.1 121.6C390.233 121.733 390.3 121.8 390.3 121.8L389.7 125.6C389.567 126.533 388.767 127.6 387.3 128.8C385.833 130 384.967 130.8 384.7 131.2C384.433 131.867 384.1 132.267 383.7 132.4H383.3C383.3 132.267 383.233 132.2 383.1 132.2C382.833 132.333 382.1 132.933 380.9 134C379.7 135.067 378.967 135.6 378.7 135.6H378.5C378.5 135.467 378.433 135.4 378.3 135.4C377.633 135.533 376.767 136.133 375.7 137.2L375.1 136.8C375.1 137.067 373.833 137.267 371.3 137.4C371.033 137.4 370.5 137.133 369.7 136.6C369.033 136.2 368.7 135.933 368.7 135.8V134.4C368.833 134 369.633 133.467 371.1 132.8C371.233 132.8 371.367 132.867 371.5 133C371.633 133.267 371.833 133.4 372.1 133.4L376.1 134H376.7C376.833 134 376.9 133.933 376.9 133.8C376.9 133.667 377.033 133.533 377.3 133.4C377.7 133.4 379.3 132.2 382.1 129.8C382.233 129.533 382.3 129.133 382.3 128.6C382.3 128.733 382.367 128.867 382.5 129C383.3 128.733 383.633 128.2 383.5 127.4C383.5 126.6 383.567 126.133 383.7 126C383.567 125.6 383.433 125.467 383.3 125.6C383.3 125.467 383.433 125.133 383.7 124.6L383.5 123.6C383.1 123.067 382.767 122.933 382.5 123.2C382.367 123.2 382.3 123.267 382.3 123.4C382.3 123.533 382.167 123.6 381.9 123.6C381.767 123.6 381.633 123.533 381.5 123.4C381.367 123.133 381.167 123.133 380.9 123.4C380.367 123.667 379.9 124.2 379.5 125C379.1 125.667 378.367 126.2 377.3 126.6L377.1 126.4H376.7C376.833 126.4 376.767 126.533 376.5 126.8C376.367 126.8 376.233 126.8 376.1 126.8C375.967 126.667 375.767 126.533 375.5 126.4C375.767 126.533 375.767 126.933 375.5 127.6L375.1 127.2L373.9 128.2L371.9 129.6C371.9 129.467 371.7 129.333 371.3 129.2C370.9 129.6 370.5 129.867 370.1 130H369.7C369.567 129.867 369.433 129.8 369.3 129.8L368.5 130.4C367.833 130.4 367.3 130.6 366.9 131C367.567 131.267 367.3 131.467 366.1 131.6C366.1 131.467 366.033 131.4 365.9 131.4H365.7C364.5 131.4 364.433 131.8 365.5 132.6L364.9 132.8C364.9 132.933 364.967 133.067 365.1 133.2C365.1 133.333 365.033 133.467 364.9 133.6L365.5 134V134.6C364.7 134.733 363.967 134.867 363.3 135C362.5 135.133 361.9 135.4 361.5 135.8L360.3 136.8L354.7 138.2ZM421.73 131.6C421.863 131.6 421.73 131.4 421.33 131C421.063 131.267 420.463 131.4 419.53 131.4C419.263 131.4 418.863 131.267 418.33 131C417.93 130.867 417.663 130.8 417.53 130.8C417.396 130.8 417.063 130.867 416.53 131C416.13 131.133 415.796 131.2 415.53 131.2C415.396 131.2 414.996 131.067 414.33 130.8C413.663 130.667 413.196 130.6 412.93 130.6C412.796 128.867 411.263 128.2 408.33 128.6V128.2C408.33 127.267 408.13 126.533 407.73 126C407.33 125.467 406.996 124.6 406.73 123.4C406.596 123.267 406.33 123 405.93 122.6C405.663 122.067 405.53 121.067 405.53 119.6C405.53 119.6 405.663 119.333 405.93 118.8C406.063 118.667 405.93 118.333 405.53 117.8C405.663 117.667 405.93 116.6 406.33 114.6C406.463 113.933 406.53 113.4 406.53 113C406.663 112.6 406.73 112.267 406.73 112C405.93 111.333 405.53 110.733 405.53 110.2L406.13 108.8C406.263 108.933 406.73 109 407.53 109H408.33C408.596 108.6 408.863 108.2 409.13 107.8C409.53 107.267 409.996 106.733 410.53 106.2C411.33 106.2 412.063 105.467 412.73 104L412.53 103.2C412.663 102.933 412.796 102.733 412.93 102.6C412.93 102.6 412.996 102.6 413.13 102.6C413.13 102.6 413.063 102.6 412.93 102.6C413.063 102.6 413.263 102.667 413.53 102.8C413.663 102.667 413.93 102.4 414.33 102C414.73 101.6 415.396 101.067 416.33 100.4C416.73 99.8667 417.396 99.2 418.33 98.4C419.93 97.3333 420.796 96.8 420.93 96.8C421.196 96.8 421.796 96.4 422.73 95.6C422.996 95.7333 423.196 95.8667 423.33 96C423.463 96 423.53 96 423.53 96C423.796 96 424.863 95.5333 426.73 94.6C426.596 95.1333 426.73 95.4 427.13 95.4H428.53C429.196 95 429.53 94.8 429.53 94.8C430.863 94.8 432.463 95.5333 434.33 97C434.463 97.1333 434.663 97.2 434.93 97.2V100.4C434.663 100.4 434.396 100.267 434.13 100L433.33 101.8C433.863 102.6 434.13 103 434.13 103C433.863 103.133 433.196 104.267 432.13 106.4V108C431.596 108 431.13 108.067 430.73 108.2C428.596 109.667 427.396 110.4 427.13 110.4H426.73C426.596 110.267 426.463 110.2 426.33 110.2C425.796 110.2 425.063 110.467 424.13 111C423.996 111.133 423.796 111.4 423.53 111.8C423.263 112.067 422.93 112.2 422.53 112.2H422.33C422.33 112.067 422.263 112 422.13 112C421.863 112 421.13 112.267 419.93 112.8C418.863 113.2 418.263 113.4 418.13 113.4H417.73C417.596 113.267 417.463 113.2 417.33 113.2L416.73 113.8H415.53C414.996 113.8 414.596 113.667 414.33 113.4H411.73C411.73 113.933 411.53 114.733 411.13 115.8C410.863 116.867 410.73 117.467 410.73 117.6C410.73 118 411.196 118.933 412.13 120.4C412.263 120.533 412.53 120.867 412.93 121.4C413.33 121.8 413.93 122.333 414.73 123C414.996 123.533 415.396 124.067 415.93 124.6C416.196 124.733 416.463 124.8 416.73 124.8C416.996 124.8 417.33 124.867 417.73 125L418.33 125.8C418.73 125.533 419.33 125.533 420.13 125.8L421.13 126.4C421.796 126.4 422.13 126.4 422.13 126.4C422.13 126.267 422.13 126.2 422.13 126.2C422.263 126.333 422.263 126.4 422.13 126.4C422.263 126.533 422.396 126.6 422.53 126.6C422.663 126.6 422.796 126.533 422.93 126.4C423.196 126.133 423.396 126 423.53 126H423.93C423.93 126.133 423.996 126.2 424.13 126.2C424.53 126.2 424.996 125.933 425.53 125.4C425.93 125.533 426.33 125.533 426.73 125.4L426.93 125.6V126.2C426.663 126.333 426.33 126.533 425.93 126.8C425.53 127.067 424.996 127.333 424.33 127.6V128.4C424.33 128.533 424.596 128.6 425.13 128.6C427.396 128.6 429.196 127.933 430.53 126.6C430.796 126.733 430.996 126.867 431.13 127C431.263 127 431.33 127 431.33 127C431.596 127 431.73 126.867 431.73 126.6H432.73C432.996 126.467 433.396 126.133 433.93 125.6C434.463 124.933 434.996 124.6 435.53 124.6L436.33 124.8L436.93 123.2L437.53 123.6C437.796 123.333 438.396 123.2 439.33 123.2C439.33 123.2 439.33 123.133 439.33 123C439.33 122.867 439.396 122.733 439.53 122.6C440.863 122.333 442.53 121.2 444.53 119.2H445.33L448.33 116.8C448.33 116.533 448.53 116.133 448.93 115.6C449.063 115.6 449.263 115.733 449.53 116L451.33 113.6C451.73 113.6 452.196 113.4 452.73 113L453.33 113.6L451.93 115.4C451.13 115.933 450.13 116.733 448.93 117.8C447.73 118.867 446.396 120.133 444.93 121.6C443.996 121.6 443.463 121.867 443.33 122.4C442.13 122.933 441.33 123.533 440.93 124.2L440.33 123.6C440.196 123.733 439.796 124.067 439.13 124.6C438.596 125 437.663 125.533 436.33 126.2C436.063 126.467 435.663 126.867 435.13 127.4C434.596 127.8 434.063 128 433.53 128C433.263 128 433.196 127.933 433.33 127.8H433.13C432.596 127.8 432.063 128 431.53 128.4C430.996 128.8 430.73 129.133 430.73 129.4C430.596 129.4 430.396 129.267 430.13 129C428.396 129.933 427.396 130.4 427.13 130.4H426.73L426.53 130.2L423.53 131C423.53 131 423.53 130.933 423.53 130.8C423.53 130.667 423.463 130.533 423.33 130.4L422.73 131.2C422.596 131.2 422.396 131.267 422.13 131.4C421.996 131.533 421.863 131.6 421.73 131.6ZM416.93 111.4C416.796 111 416.93 110.8 417.33 110.8C417.463 110.8 417.53 110.867 417.53 111H417.93C418.063 111 418.33 110.8 418.73 110.4C419.263 110 419.596 109.8 419.73 109.8C419.863 109.8 420.063 109.867 420.33 110C420.596 110.133 420.796 110.2 420.93 110.2C420.663 110.2 420.996 109.733 421.93 108.8L422.53 109.2C425.596 107.2 427.13 105.467 427.13 104C427.13 102.267 426.263 101.2 424.53 100.8C422.93 100.4 421.396 100 419.93 99.6C419.663 99.8667 419.396 100 419.13 100C418.463 101.067 417.73 101.867 416.93 102.4C416.663 102.4 415.863 103.067 414.53 104.4C414.53 104.533 414.13 105.133 413.33 106.2C413.063 107.133 412.796 107.867 412.53 108.4C412.396 108.933 412.33 109.333 412.33 109.6C412.863 110.533 413.396 111 413.93 111H414.13C414.263 110.867 414.396 110.8 414.53 110.8C415.196 110.8 415.996 111 416.93 111.4ZM454.13 112.6V112.2C454.13 111.4 454.53 110.933 455.33 110.8C455.196 111.333 454.796 111.933 454.13 112.6ZM530.658 143C528.658 143 527.791 142.667 528.058 142L525.658 142.8L524.658 142C524.924 142 524.724 141.933 524.058 141.8C523.391 141.8 522.324 141.733 520.858 141.6H519.658C518.724 141.6 517.924 141.8 517.258 142.2L512.858 140.4L512.058 140.6L509.658 139.6L509.058 140L505.458 137.8L503.658 138.4L503.058 136.8C502.258 135.733 501.658 135.733 501.258 136.8L499.858 134.6C499.324 135.4 498.724 135.667 498.058 135.4L496.458 132.6L495.658 133.6C494.724 133.6 494.324 133 494.458 131.8C492.324 129.8 490.324 127.8 488.458 125.8C486.724 123.8 485.058 121.8 483.458 119.8L483.658 119.4C483.524 118.733 483.258 117.867 482.858 116.8C482.591 115.733 482.191 114.533 481.658 113.2L480.858 112.8L480.258 110.4C479.324 110.4 478.858 106.467 478.858 98.6L479.458 93.2L480.058 93.4L481.058 88.4L481.858 87.8C481.991 83.4 482.924 79.4 484.658 75.8C485.724 73.5333 487.924 70.1333 491.258 65.6L491.458 64.6C492.258 63.9333 493.191 63.1333 494.258 62.2C495.458 61.2667 496.724 60.1333 498.058 58.8V58C498.058 57.0667 500.258 54.8 504.658 51.2C504.658 50.2667 505.324 49.2 506.658 48L507.458 48.6C507.991 48.6 508.324 48.0667 508.458 47C508.591 45.9333 508.791 45.2667 509.058 45C510.391 43.6667 511.991 42.2 513.858 40.6C515.724 39 517.924 37.3333 520.458 35.6V34.8L523.258 32.4L523.458 32.8L531.658 27.2L532.458 27.6C532.991 27.6 533.258 27.3333 533.258 26.8L534.058 27C536.191 24.6 538.258 22.9333 540.258 22L541.058 22.4L542.858 21.4C542.858 21.4 542.991 21.3333 543.258 21.2C543.658 20.9333 544.191 20.6667 544.858 20.4L560.258 15C562.524 14.2 565.058 13.6 567.858 13.2C570.658 12.8 573.724 12.5333 577.058 12.4L579.058 11.6C580.391 11.3333 581.858 11.1333 583.458 11C585.191 10.8667 586.991 10.7333 588.858 10.6L595.658 11.2C598.191 12 599.324 12.2 599.058 11.8C602.658 12.7333 604.991 13.8667 606.058 15.2L606.458 15C607.791 15 608.524 15.4667 608.658 16.4C610.391 16.5333 612.058 17.7333 613.658 20C616.991 16.1333 619.991 12.6 622.658 9.39999C625.324 6.06666 627.591 3.06666 629.458 0.4C629.991 4.4 625.524 12.2 616.058 23.8L616.458 25.2V25.8C617.524 27.6667 618.058 30 618.058 32.8C618.058 32.8 617.924 33.2 617.658 34C617.391 34.6667 617.458 35.0667 617.858 35.2L616.058 42.4C615.658 43.8667 615.258 45.2 614.858 46.4C614.458 47.4667 613.924 48.3333 613.258 49C613.124 49.1333 612.858 49.4667 612.458 50C612.191 50.4 611.791 51.0667 611.258 52C610.324 53.3333 609.124 54.8 607.658 56.4C606.324 57.8667 604.591 59.3333 602.458 60.8C600.724 62.1333 598.991 63.4 597.258 64.6C595.658 65.8 593.991 67 592.258 68.2L591.258 67.8L589.658 69.8C589.524 69.6667 589.324 69.6 589.058 69.6C588.791 69.6 588.458 69.6667 588.058 69.8C587.658 69.9333 587.324 69.9333 587.058 69.8C582.524 73.2667 580.191 74.8 580.058 74.4L573.858 78.2C572.924 78.7333 570.924 79.5333 567.858 80.6C564.924 81.5333 563.324 81.8 563.058 81.4C561.591 81.8 559.924 82.6667 558.058 84H556.858C552.324 88.5333 549.858 91.4 549.458 92.6L547.658 93.8C543.924 96.2 540.924 97.2667 538.658 97C537.724 97.4 537.258 96.8667 537.258 95.4C537.258 93.1333 538.524 90.7333 541.058 88.2C541.458 87.1333 541.924 86.3333 542.458 85.8C541.791 85.9333 540.924 86.1333 539.858 86.4C538.791 86.6667 537.524 86.9333 536.058 87.2C534.858 87.3333 534.124 87.2667 533.858 87C533.858 86.6 534.658 86.1333 536.258 85.6L544.458 84.2C545.391 83.6667 546.058 83.4667 546.458 83.6L548.258 83L548.858 83.2C550.058 82.5333 551.858 82 554.258 81.6C565.724 71.7333 574.324 63.7333 580.058 57.6C585.258 52 589.991 46.8 594.258 42C598.658 37.2 602.591 32.8667 606.058 29L604.858 27.4C604.858 24.8667 604.324 23.6 603.258 23.6C602.858 23.6 602.591 23.6667 602.458 23.8L600.458 22L600.058 22.2L594.458 18.4L594.258 17.6L592.658 17.8C591.724 17.1333 590.724 16.8667 589.658 17H588.658C587.058 17 585.858 16.6 585.058 15.8L583.658 16.2C581.924 15.8 580.458 15.6 579.258 15.6L561.658 18.4C558.324 18.9333 555.258 19.6667 552.458 20.6C549.658 21.5333 547.058 22.5333 544.658 23.6C544.258 24 543.258 24.4667 541.658 25C541.124 25.2667 540.058 25.8667 538.458 26.8C536.858 27.7333 534.791 29 532.258 30.6C529.724 32.0667 527.658 33.3333 526.058 34.4C524.591 35.4667 523.524 36.2667 522.858 36.8L519.258 40L518.458 40.4C517.124 41.7333 515.391 43.4 513.258 45.4C511.258 47.2667 508.924 49.4667 506.258 52C504.924 53.3333 503.524 55.5333 502.058 58.6H501.658C501.258 58.6 500.924 59 500.658 59.8C500.524 60.7333 500.524 61.3333 500.658 61.6L498.458 64.6C498.058 65.1333 497.791 66.2667 497.658 68C494.858 69.6 493.458 71.8667 493.458 74.8C491.991 76.6667 491.191 77.6 491.058 77.6L492.258 80.4L490.658 83.6C489.858 87.7333 489.591 90.2667 489.858 91.2C489.058 92 488.924 93 489.458 94.2L487.858 96.4C488.924 99.3333 489.458 100.6 489.458 100.2C489.458 100.733 489.124 101 488.458 101L490.058 103.2L488.858 106L489.058 108H490.458C492.058 113.733 493.258 116.467 494.058 116.2C495.258 118.733 496.858 120.333 498.858 121V122.6C499.124 122.733 499.658 123.2 500.458 124C501.258 124.8 502.191 125.933 503.258 127.4L504.458 126.6L505.858 126.8L507.458 128.6V129L508.858 130.8L510.658 130.2C511.858 131 512.458 131.2 512.458 130.8L514.858 131.8C515.124 131.533 515.258 131.4 515.258 131.4C515.524 131.4 515.991 132.133 516.658 133.6H518.458L519.058 134.6C521.458 133.8 523.524 133.4 525.258 133.4C527.924 133.4 529.858 134.2 531.058 135.8C531.191 135.667 531.391 135.6 531.658 135.6C532.324 135.6 533.058 135.8 533.858 136.2C534.791 136.6 535.324 136.8 535.458 136.8L535.858 136.6L539.858 136.2L540.658 136.6L541.658 135C542.324 135.533 543.458 135.667 545.058 135.4L548.658 134.8C548.658 134.8 548.924 134.667 549.458 134.4C550.124 134.267 551.058 133.933 552.258 133.4C552.658 133.8 553.191 134 553.858 134C555.458 134 556.258 134 556.258 134L560.858 132.4L561.258 133L563.858 131.4C564.258 131.533 564.658 131.4 565.058 131L567.858 130.6L569.858 131.4L571.658 131.2C571.658 130.933 571.658 130.6 571.658 130.2C571.791 129.933 571.924 129.6 572.058 129.2L572.858 129.4L575.258 127.4L576.458 127.6L580.858 126L581.658 126.6L585.258 124.2L585.858 124.6L589.858 122L590.258 122.2C592.124 121.4 594.524 119.8 597.458 117.4L597.658 117.8C602.858 113.4 610.591 107.267 620.858 99.4L621.058 99.8C622.124 98.8667 623.324 97.7333 624.658 96.4C625.991 95.0667 627.524 93.4667 629.258 91.6L629.858 91.8L633.858 86.8L634.858 87C634.724 87.8 634.258 88.6667 633.458 89.6C632.658 90.4 632.258 91 632.258 91.4C632.258 91.6667 631.658 92.4 630.458 93.6C629.391 94.6667 628.724 95.2 628.458 95.2C628.191 95.2 623.724 99.0667 615.058 106.8C606.524 114.4 601.791 118.2 600.858 118.2C599.658 119.533 597.458 120.933 594.258 122.4C591.324 123.733 589.191 125.067 587.858 126.4L587.658 126L586.658 126.2L581.658 129.2L580.858 129.6C579.124 130.533 577.191 131.467 575.058 132.4C573.058 133.333 570.724 134.133 568.058 134.8L567.658 134.4L564.058 136.6L563.458 136.4C561.724 136.667 559.658 137.067 557.258 137.6C554.991 138.267 552.324 139.067 549.258 140L548.458 139.8C547.524 139.933 546.524 140.067 545.458 140.2C544.524 140.333 543.458 140.467 542.258 140.6C542.258 140.867 542.058 141 541.658 141C541.124 141 540.658 140.933 540.258 140.8C539.991 140.667 539.924 140.6 540.058 140.6C539.391 140.733 537.924 141.133 535.658 141.8C533.524 142.6 531.858 143 530.658 143ZM562.458 79L564.258 77.8L564.858 78.4L570.258 75.4L571.058 75.8L572.858 74.2L573.658 74.6L575.258 73.6L575.658 74C578.724 70.9333 581.524 69.3333 584.058 69.2L586.458 68.2L586.258 67.2L587.458 65.6C592.124 62.9333 596.724 58.7333 601.258 53C605.258 47.9333 607.391 44.3333 607.658 42.2C608.191 42.3333 608.458 40.8 608.458 37.6C608.458 36.6667 608.391 35.8667 608.258 35.2C608.258 34.4 608.191 33.6667 608.058 33C605.391 35.8 602.458 38.9333 599.258 42.4C596.191 45.8667 592.791 49.6667 589.058 53.8C588.258 54.7333 585.658 57.3333 581.258 61.6C576.858 65.7333 570.591 71.5333 562.458 79ZM627.653 129.8C627.653 129.8 627.72 129.8 627.853 129.8C627.72 129.4 626.986 128.867 625.653 128.2C625.786 127.933 625.853 127.733 625.853 127.6C625.853 127.333 625.853 127.2 625.853 127.2C625.853 127.067 625.786 126.933 625.653 126.8V126.4C625.653 125.867 625.453 125.2 625.053 124.4V121.8C625.586 121.533 625.92 120.933 626.053 120C626.053 119.733 626.12 119.533 626.253 119.4C626.12 118.867 626.053 118.467 626.053 118.2C626.053 117.933 626.053 117.733 626.053 117.6L626.653 116.8C627.053 115.2 627.253 113.6 627.253 112L627.853 111.2L628.853 106.8L630.053 103.8L630.853 103.2C630.853 102.133 631.12 101 631.653 99.8V99.4C631.52 99.2667 631.386 99.2 631.253 99.2C630.986 99.2 628.986 100.467 625.253 103C624.586 103.533 623.92 103.8 623.253 103.8H623.053C623.053 103.667 622.986 103.6 622.853 103.6C622.72 103.6 622.32 103.867 621.653 104.4C621.12 104.933 620.72 105.2 620.453 105.2C620.586 105.067 620.386 104.933 619.853 104.8C620.386 104.4 620.653 104.067 620.653 103.8C623.186 103.267 625.253 101.867 626.853 99.6C627.253 99.4667 628.053 98.9333 629.253 98C629.52 97.8667 629.853 97.7333 630.253 97.6C630.653 97.4667 630.986 97.0667 631.253 96.4L632.253 95.6C632.253 95.6 632.453 95.5333 632.853 95.4C633.253 95.1333 633.786 94.7333 634.453 94.2C634.453 93.6667 634.853 92.8 635.653 91.6C636.186 90.9333 636.52 89.9333 636.653 88.6C637.186 88.3333 637.453 88 637.453 87.6C637.586 87.2 637.72 86.7333 637.853 86.2C638.653 84.7333 639.053 83.4667 639.053 82.4H639.853C639.986 82.4 640.053 82.3333 640.053 82.2C640.053 82.2 639.986 82.0667 639.853 81.8C639.853 81.5333 639.853 81.1333 639.853 80.6C639.853 80.0667 640.186 79 640.853 77.4C641.52 75.8 641.853 75.0667 641.853 75.2C642.12 74.8 642.386 74.6 642.653 74.6C643.053 74.6 643.32 74.9333 643.453 75.6C643.586 76.2667 643.653 76.6667 643.653 76.8C644.186 76.6667 644.453 76.1333 644.453 75.2V73C644.586 72.8667 644.853 72.6 645.253 72.2C645.653 71.6667 645.92 70.4667 646.053 68.6C647.386 67.2667 648.72 64.5333 650.053 60.4C650.453 60.4 650.72 60.4667 650.853 60.6V59.8C651.52 58.6 652.32 57.2 653.253 55.6C654.32 53.8667 655.52 52 656.853 50L658.053 47.4C658.72 45.9333 659.653 44.2667 660.853 42.4C662.053 40.5333 663.453 38.5333 665.053 36.4C665.72 35.7333 666.52 35.1333 667.453 34.6C667.72 34.3333 667.986 33.9333 668.253 33.4C668.653 32.8667 669.12 32.2667 669.653 31.6C670.053 31.7333 670.32 31.8667 670.453 32C670.32 32 670.853 31.5333 672.053 30.6C672.72 30.3333 673.32 29.8667 673.853 29.2L673.653 28.2L674.453 25.6C674.586 25.6 674.853 25.4667 675.253 25.2C675.653 24.8 675.92 24.6 676.053 24.6C676.32 24.6 676.586 24.6 676.853 24.6C677.253 24.4667 677.586 24.4 677.853 24.4C680.92 24.4 682.853 25.8667 683.653 28.8L684.653 32.2L683.053 33L680.253 35.8C679.853 35.9333 679.386 36.2667 678.853 36.8C678.32 37.2 677.72 37.6 677.053 38L673.053 41.6C673.053 41.7333 672.92 42.0667 672.653 42.6C672.253 42.7333 671.453 43.2667 670.253 44.2C669.853 45.1333 668.986 46.2 667.653 47.4C667.386 48.3333 666.986 49.0667 666.453 49.6C663.92 52.9333 661.52 55.7333 659.253 58C659.12 58 658.92 58.2667 658.653 58.8C658.386 59.2 657.853 59.8 657.053 60.6C656.92 60.7333 656.853 61.2 656.853 62C656.586 61.8667 656.186 62.2 655.653 63C655.12 63.8 654.853 64.2 654.853 64.2V65C654.32 65.5333 653.853 66.2 653.453 67C653.586 67.4 653.653 67.7333 653.653 68C652.853 68.5333 652.053 69.2 651.253 70L649.253 74.4C649.253 74.9333 649.186 75.4 649.053 75.8C648.653 75.8 647.92 76.2 646.853 77C646.186 78.6 645.92 79.6667 646.053 80.2C645.253 80.4667 644.72 80.9333 644.453 81.6L642.453 86C642.453 86.2667 642.653 86.6 643.053 87C643.72 86.4667 644.453 85.8 645.253 85C646.186 84.0667 647.186 83.0667 648.253 82C648.52 81.7333 648.52 81.5333 648.253 81.4C649.32 80.7333 650.32 80 651.253 79.2C652.32 78.4 652.92 77.4 653.053 76.2C653.853 75.4 654.32 74.8 654.453 74.4C654.586 74.5333 654.72 74.6 654.853 74.6C655.653 74.4667 656.12 74.1333 656.253 73.6C656.386 72.9333 657.12 72.4 658.453 72C659.92 70.2667 660.853 68.9333 661.253 68L662.453 65.4C662.453 65 662.52 64.7333 662.653 64.6C663.453 64.2 663.786 64 663.653 64C663.786 64 663.92 64.0667 664.053 64.2H664.453C665.12 64.2 665.653 63.6667 666.053 62.6L666.853 62.2C666.853 61.6667 667.32 61.0667 668.253 60.4C669.32 59.6 670.053 58.9333 670.453 58.4V57.8L673.853 52.6C673.72 52.4667 673.653 51.9333 673.653 51L676.653 49.2C677.053 47.6 678.053 45.9333 679.653 44.2C679.52 44.0667 679.453 43.8667 679.453 43.6C679.453 43.3333 679.653 43 680.053 42.6C680.453 42.2 681.053 42 681.853 42C681.853 41.8667 681.92 41.7333 682.053 41.6L682.653 39.6C684.786 36.5333 685.853 34.2667 685.853 32.8C686.12 32.6667 686.52 32.2 687.053 31.4C687.986 31.4 688.52 30.4667 688.653 28.6C689.186 27.6667 689.653 26.6 690.053 25.4C690.453 24.2 690.92 22.8667 691.453 21.4C692.12 20.3333 692.453 18.9333 692.453 17.2C692.72 17.2 692.853 17.0667 692.853 16.8C692.853 16.5333 692.653 16.2 692.253 15.8C691.986 15.2667 691.853 15 691.853 15C691.72 14.7333 691.653 14.4667 691.653 14.2C691.653 13.4 692.12 12.8 693.053 12.4C693.053 12.2667 693.12 12.2 693.253 12.2L693.853 14.2C693.986 14.3333 694.053 15 694.053 16.2C693.92 17.6667 693.786 18.8 693.653 19.6C693.653 20.2667 693.52 20.9333 693.253 21.6C693.12 22.2667 692.72 23.4667 692.053 25.2C691.92 25.6 692.053 25.9333 692.453 26.2L691.853 28C691.72 28.5333 691.453 29.2667 691.053 30.2C690.653 31.1333 690.253 32.2 689.853 33.4C689.186 33.8 688.386 35.2667 687.453 37.8C687.32 37.8 687.186 37.7333 687.053 37.6C686.386 38.2667 686.253 38.9333 686.653 39.6V40.2C685.986 40.8667 685.386 41.7333 684.853 42.8C684.32 43.7333 683.786 44.8 683.253 46C682.72 46.5333 682.053 47.7333 681.253 49.6C681.253 49.6 681.12 49.7333 680.853 50C680.186 50.2667 678.986 51.6 677.253 54C676.72 54.9333 676.186 55.8 675.653 56.6C675.12 57.4 674.586 58.2 674.053 59C673.92 59 673.72 59.1333 673.453 59.4C673.186 59.5333 672.92 59.6 672.653 59.6C672.52 59.6 672.453 59.5333 672.453 59.4H672.253C671.853 59.4 671.253 60 670.453 61.2V62.4L669.053 64.4C668.653 64.4 668.32 64.6 668.053 65L663.853 69.2C663.853 69.2 663.72 69.6 663.453 70.4C662.786 71.3333 661.253 72.5333 658.853 74L657.653 75.4L652.853 80.4H652.253L648.653 84.6C647.053 85.6667 646.12 86.5333 645.853 87.2C644.92 87.6 644.12 88.1333 643.453 88.8C642.786 89.4667 642.186 90.0667 641.653 90.6H641.253C637.786 94.0667 635.653 98.1333 634.853 102.8C634.586 103.067 634.053 104.267 633.253 106.4C632.986 107.067 632.653 107.933 632.253 109C631.986 109.933 631.653 111.067 631.253 112.4C631.12 112.667 630.92 113.133 630.653 113.8C630.386 114.333 630.12 114.933 629.853 115.6C629.853 115.867 629.853 116.2 629.853 116.6C629.853 116.867 629.786 117.267 629.653 117.8L628.853 119.4C628.32 120.333 627.986 121.333 627.853 122.4C627.72 123.467 627.653 124.333 627.653 125C627.653 126.067 628.12 126.6 629.053 126.6C629.72 126.6 630.32 126.4 630.853 126C630.853 125.6 630.72 125.267 630.453 125C630.586 125 630.786 124.933 631.053 124.8C631.453 124.533 631.986 124.067 632.653 123.4C632.653 123.4 632.72 123.333 632.853 123.2C633.12 123.067 633.32 122.867 633.453 122.6C634.12 122.333 635.32 121.267 637.053 119.4C638.386 117.933 639.053 117.067 639.053 116.8C639.053 116.8 639.186 116.933 639.453 117.2L640.653 116C640.92 116 641.653 115.333 642.853 114L645.653 111.6C645.653 111.6 645.72 111.6 645.853 111.6C645.986 111.6 646.12 111.533 646.253 111.4C646.386 111 647.253 110 648.853 108.4C649.12 108.267 649.453 108.067 649.853 107.8C650.386 107.533 650.986 107.2 651.653 106.8C651.786 106 652.053 105.533 652.453 105.4C652.853 105.267 653.653 104.867 654.853 104.2C656.186 103.533 656.92 103.2 657.053 103.2C657.186 103.2 657.253 103.267 657.253 103.4H657.653C657.92 103.4 658.186 103.2 658.453 102.8C658.853 102.4 659.52 102.133 660.453 102C660.586 101.467 660.986 101.2 661.653 101.2C662.32 101.2 662.72 101.467 662.853 102C662.986 102 663.12 101.933 663.253 101.8C663.52 101.667 663.72 101.6 663.853 101.6C664.12 101.6 664.32 101.667 664.453 101.8C664.586 101.933 664.72 102 664.853 102C664.986 102 665.053 101.933 665.053 101.8C665.186 101.667 665.386 101.6 665.653 101.6C665.253 101.6 665.853 101.933 667.453 102.6C667.586 103 667.986 103.733 668.653 104.8C669.453 105.867 670.32 106.6 671.253 107C671.253 107.4 672.053 108.4 673.653 110C673.92 110.267 674.186 110.667 674.453 111.2C674.853 111.733 675.32 112.333 675.853 113C676.52 113.4 677.053 113.933 677.453 114.6L678.253 116C678.253 116.133 678.586 116.4 679.253 116.8C680.32 117.733 681.72 118.733 683.453 119.8C683.586 119.933 683.72 120.133 683.853 120.4C684.12 120.533 684.32 120.6 684.453 120.6C684.586 120.6 684.786 120.533 685.053 120.4C685.186 120.933 685.72 121.4 686.653 121.8H686.853C686.853 121.667 686.92 121.6 687.053 121.6C687.186 121.6 687.386 121.733 687.653 122C687.92 122.267 688.253 122.4 688.653 122.4H689.453C689.853 122.4 689.92 122.2 689.653 121.8L690.653 122L691.053 122.4C691.986 121.733 692.32 121.2 692.053 120.8C692.986 120.933 693.52 120.933 693.653 120.8C694.053 120.933 694.253 121.333 694.253 122C694.253 122.267 693.786 123.067 692.853 124.4C692.453 124.533 691.853 124.8 691.053 125.2C690.253 125.6 689.786 125.8 689.653 125.8C689.52 125.8 689.253 125.733 688.853 125.6C688.453 125.333 688.12 125.267 687.853 125.4L685.653 125.8C685.52 125.8 685.053 125.733 684.253 125.6C683.586 125.467 683.12 125.4 682.853 125.4C682.186 125.4 680.253 124.4 677.053 122.4L674.853 120.4C674.186 120.133 672.853 119.2 670.853 117.6C668.586 115.733 667.586 114.8 667.853 114.8C667.586 114.933 667.386 115 667.253 115C667.253 114.6 667.186 114.267 667.053 114C664.92 112.667 663.853 111.6 663.853 110.8C663.853 110.667 663.653 110.6 663.253 110.6C662.853 110.067 662.453 109.8 662.053 109.8C661.786 109.8 661.453 109.867 661.053 110C660.653 110.133 660.386 110.2 660.253 110.2C659.853 110.2 659.253 109.667 658.453 108.6C658.186 108.6 657.786 108.6 657.253 108.6C656.72 108.467 656.12 108.333 655.453 108.2C654.786 108.867 654.32 109.533 654.053 110.2C652.586 110.867 651.92 111.533 652.053 112.2C649.786 112.733 648.186 113.467 647.253 114.4C647.253 114.667 647.386 114.8 647.653 114.8C646.986 115.333 646.52 115.733 646.253 116C645.986 116.267 645.653 116.4 645.253 116.4L642.853 118C642.586 118.267 642.186 118.6 641.653 119C641.253 119.4 640.72 119.867 640.053 120.4C640.053 120.4 639.786 120.533 639.253 120.8C638.853 120.933 638.12 121.267 637.053 121.8L634.053 125.6C633.653 125.733 633.12 126.267 632.453 127.2C632.053 127.333 631.386 127.8 630.453 128.6C629.653 129.4 629.053 129.8 628.653 129.8C628.386 129.8 628.253 129.733 628.253 129.6C628.386 129.467 628.386 129.4 628.253 129.4C627.986 129.4 627.853 129.533 627.853 129.8C627.853 129.8 627.786 129.8 627.653 129.8ZM616.453 107.4C616.453 107.133 616.52 106.933 616.653 106.8C616.92 106.533 617.52 106.267 618.453 106C618.853 105.467 619.253 105.2 619.653 105.2C619.786 105.2 619.986 105.333 620.253 105.6C619.72 105.733 618.72 106.333 617.253 107.4H616.453ZM713.331 131.6C713.465 131.6 713.331 131.4 712.931 131C712.665 131.267 712.065 131.4 711.131 131.4C710.865 131.4 710.465 131.267 709.931 131C709.531 130.867 709.265 130.8 709.131 130.8C708.998 130.8 708.665 130.867 708.131 131C707.731 131.133 707.398 131.2 707.131 131.2C706.998 131.2 706.598 131.067 705.931 130.8C705.265 130.667 704.798 130.6 704.531 130.6C704.398 128.867 702.865 128.2 699.931 128.6V128.2C699.931 127.267 699.731 126.533 699.331 126C698.931 125.467 698.598 124.6 698.331 123.4C698.198 123.267 697.931 123 697.531 122.6C697.265 122.067 697.131 121.067 697.131 119.6C697.131 119.6 697.265 119.333 697.531 118.8C697.665 118.667 697.531 118.333 697.131 117.8C697.265 117.667 697.531 116.6 697.931 114.6C698.065 113.933 698.131 113.4 698.131 113C698.265 112.6 698.331 112.267 698.331 112C697.531 111.333 697.131 110.733 697.131 110.2L697.731 108.8C697.865 108.933 698.331 109 699.131 109H699.931C700.198 108.6 700.465 108.2 700.731 107.8C701.131 107.267 701.598 106.733 702.131 106.2C702.931 106.2 703.665 105.467 704.331 104L704.131 103.2C704.265 102.933 704.398 102.733 704.531 102.6C704.531 102.6 704.598 102.6 704.731 102.6C704.731 102.6 704.665 102.6 704.531 102.6C704.665 102.6 704.865 102.667 705.131 102.8C705.265 102.667 705.531 102.4 705.931 102C706.331 101.6 706.998 101.067 707.931 100.4C708.331 99.8667 708.998 99.2 709.931 98.4C711.531 97.3333 712.398 96.8 712.531 96.8C712.798 96.8 713.398 96.4 714.331 95.6C714.598 95.7333 714.798 95.8667 714.931 96C715.065 96 715.131 96 715.131 96C715.398 96 716.465 95.5333 718.331 94.6C718.198 95.1333 718.331 95.4 718.731 95.4H720.131C720.798 95 721.131 94.8 721.131 94.8C722.465 94.8 724.065 95.5333 725.931 97C726.065 97.1333 726.265 97.2 726.531 97.2V100.4C726.265 100.4 725.998 100.267 725.731 100L724.931 101.8C725.465 102.6 725.731 103 725.731 103C725.465 103.133 724.798 104.267 723.731 106.4V108C723.198 108 722.731 108.067 722.331 108.2C720.198 109.667 718.998 110.4 718.731 110.4H718.331C718.198 110.267 718.065 110.2 717.931 110.2C717.398 110.2 716.665 110.467 715.731 111C715.598 111.133 715.398 111.4 715.131 111.8C714.865 112.067 714.531 112.2 714.131 112.2H713.931C713.931 112.067 713.865 112 713.731 112C713.465 112 712.731 112.267 711.531 112.8C710.465 113.2 709.865 113.4 709.731 113.4H709.331C709.198 113.267 709.065 113.2 708.931 113.2L708.331 113.8H707.131C706.598 113.8 706.198 113.667 705.931 113.4H703.331C703.331 113.933 703.131 114.733 702.731 115.8C702.465 116.867 702.331 117.467 702.331 117.6C702.331 118 702.798 118.933 703.731 120.4C703.865 120.533 704.131 120.867 704.531 121.4C704.931 121.8 705.531 122.333 706.331 123C706.598 123.533 706.998 124.067 707.531 124.6C707.798 124.733 708.065 124.8 708.331 124.8C708.598 124.8 708.931 124.867 709.331 125L709.931 125.8C710.331 125.533 710.931 125.533 711.731 125.8L712.731 126.4C713.398 126.4 713.731 126.4 713.731 126.4C713.731 126.267 713.731 126.2 713.731 126.2C713.865 126.333 713.865 126.4 713.731 126.4C713.865 126.533 713.998 126.6 714.131 126.6C714.265 126.6 714.398 126.533 714.531 126.4C714.798 126.133 714.998 126 715.131 126H715.531C715.531 126.133 715.598 126.2 715.731 126.2C716.131 126.2 716.598 125.933 717.131 125.4C717.531 125.533 717.931 125.533 718.331 125.4L718.531 125.6V126.2C718.265 126.333 717.931 126.533 717.531 126.8C717.131 127.067 716.598 127.333 715.931 127.6V128.4C715.931 128.533 716.198 128.6 716.731 128.6C718.998 128.6 720.798 127.933 722.131 126.6C722.398 126.733 722.598 126.867 722.731 127C722.865 127 722.931 127 722.931 127C723.198 127 723.331 126.867 723.331 126.6H724.331C724.598 126.467 724.998 126.133 725.531 125.6C726.065 124.933 726.598 124.6 727.131 124.6L727.931 124.8L728.531 123.2L729.131 123.6C729.398 123.333 729.998 123.2 730.931 123.2C730.931 123.2 730.931 123.133 730.931 123C730.931 122.867 730.998 122.733 731.131 122.6C732.465 122.333 734.131 121.2 736.131 119.2H736.931L739.931 116.8C739.931 116.533 740.131 116.133 740.531 115.6C740.665 115.6 740.865 115.733 741.131 116L742.931 113.6C743.331 113.6 743.798 113.4 744.331 113L744.931 113.6L743.531 115.4C742.731 115.933 741.731 116.733 740.531 117.8C739.331 118.867 737.998 120.133 736.531 121.6C735.598 121.6 735.065 121.867 734.931 122.4C733.731 122.933 732.931 123.533 732.531 124.2L731.931 123.6C731.798 123.733 731.398 124.067 730.731 124.6C730.198 125 729.265 125.533 727.931 126.2C727.665 126.467 727.265 126.867 726.731 127.4C726.198 127.8 725.665 128 725.131 128C724.865 128 724.798 127.933 724.931 127.8H724.731C724.198 127.8 723.665 128 723.131 128.4C722.598 128.8 722.331 129.133 722.331 129.4C722.198 129.4 721.998 129.267 721.731 129C719.998 129.933 718.998 130.4 718.731 130.4H718.331L718.131 130.2L715.131 131C715.131 131 715.131 130.933 715.131 130.8C715.131 130.667 715.065 130.533 714.931 130.4L714.331 131.2C714.198 131.2 713.998 131.267 713.731 131.4C713.598 131.533 713.465 131.6 713.331 131.6ZM708.531 111.4C708.398 111 708.531 110.8 708.931 110.8C709.065 110.8 709.131 110.867 709.131 111H709.531C709.665 111 709.931 110.8 710.331 110.4C710.865 110 711.198 109.8 711.331 109.8C711.465 109.8 711.665 109.867 711.931 110C712.198 110.133 712.398 110.2 712.531 110.2C712.265 110.2 712.598 109.733 713.531 108.8L714.131 109.2C717.198 107.2 718.731 105.467 718.731 104C718.731 102.267 717.865 101.2 716.131 100.8C714.531 100.4 712.998 100 711.531 99.6C711.265 99.8667 710.998 100 710.731 100C710.065 101.067 709.331 101.867 708.531 102.4C708.265 102.4 707.465 103.067 706.131 104.4C706.131 104.533 705.731 105.133 704.931 106.2C704.665 107.133 704.398 107.867 704.131 108.4C703.998 108.933 703.931 109.333 703.931 109.6C704.465 110.533 704.998 111 705.531 111H705.731C705.865 110.867 705.998 110.8 706.131 110.8C706.798 110.8 707.598 111 708.531 111.4ZM745.731 112.6V112.2C745.731 111.4 746.131 110.933 746.931 110.8C746.798 111.333 746.398 111.933 745.731 112.6ZM739.138 132.4C739.004 132.267 738.938 132.067 738.938 131.8C738.938 131.267 739.138 130.733 739.538 130.2C739.938 129.667 740.138 129.4 740.138 129.4L740.338 125.8C740.604 125.4 741.138 124.867 741.938 124.2C741.938 123.8 742.071 123.2 742.338 122.4C742.204 122.533 742.138 121.933 742.138 120.6C742.404 120.333 742.604 120.067 742.738 119.8C742.604 119.667 742.538 118.467 742.538 116.2C742.538 116.333 742.738 116 743.138 115.2C743.004 114.667 743.004 114 743.138 113.2C743.404 112.667 743.604 112.133 743.738 111.6C743.871 110.933 743.871 110.333 743.738 109.8L743.338 105.4C743.204 103.533 743.204 102.533 743.338 102.4C743.071 101.733 743.138 101.133 743.537 100.6C743.138 98.3333 741.671 96.3333 739.138 94.6V93.6C739.271 93.6 739.471 93.5333 739.738 93.4C740.004 93.2667 740.204 93.2 740.338 93.2C740.471 93.2 740.738 93.3333 741.138 93.6C741.671 93.8667 742.004 94 742.138 94H744.738C744.604 94.1333 745.004 94.8667 745.938 96.2C747.004 97.4 747.738 98.7333 748.138 100.2C748.138 100.6 748.204 101.067 748.338 101.6C748.604 102.133 748.938 102.467 749.338 102.6C749.738 103.8 749.938 105.067 749.938 106.4C749.938 106.933 749.871 107.533 749.738 108.2C749.738 108.733 749.671 109.333 749.538 110L750.137 110.6C750.538 111.533 750.738 112.533 750.738 113.6L751.338 113.8L755.538 107.6C755.538 107.467 755.938 107.133 756.738 106.6C757.004 106.067 757.404 105.533 757.938 105C758.604 105 758.938 104.8 758.938 104.4C758.938 103.867 759.604 103.067 760.938 102C761.338 100.133 762.404 99.1333 764.138 99V98.8C764.138 98 764.471 97.6 765.138 97.6C765.804 97.4667 766.204 96.9333 766.337 96L768.138 94.8C768.271 94.5333 768.404 94.2667 768.538 94C768.671 93.7333 768.871 93.4 769.138 93C769.271 92.8667 769.804 92.6667 770.738 92.4C773.138 90.8 774.338 89.9333 774.338 89.8C774.471 89.6667 774.738 89.4667 775.138 89.2C775.404 89.0667 775.671 88.9333 775.938 88.8C776.204 88.6667 776.538 88.5333 776.938 88.4C776.938 88.4 777.071 88.2 777.338 87.8C777.604 87.2667 777.871 87 778.138 87C778.271 87 778.338 87.0667 778.338 87.2H778.538C778.271 87.2 779.004 86.7333 780.738 85.8C781.138 85.5333 781.538 85.3333 781.938 85.2C782.471 85.0667 783.004 84.9333 783.538 84.8C784.338 83.4667 785.471 82.8 786.938 82.8C787.071 82.8 787.138 82.8667 787.138 83C787.271 83.1333 787.471 83.2 787.738 83.2C787.871 83.2 788.004 83.1333 788.138 83C788.404 82.8667 788.604 82.8 788.738 82.8C790.071 82.8 791.071 83.5333 791.738 85C792.804 87.4 793.338 89.9333 793.338 92.6V97.8C793.338 97.9333 793.471 98.1333 793.738 98.4C793.738 98.6667 793.671 98.9333 793.538 99.2L794.538 106L795.737 112.2C796.004 112.733 796.338 113.333 796.738 114C797.138 114.533 797.471 115.2 797.738 116L798.338 116.4C799.004 116.667 799.338 117.333 799.338 118.4L801.738 119.4C802.404 120.067 802.671 120.333 802.538 120.2L804.938 119C805.204 119.133 805.404 119.267 805.538 119.4C805.671 119.4 805.738 119.4 805.738 119.4C806.004 119.4 806.538 118.933 807.338 118C808.271 117.067 808.804 116.4 808.938 116C809.204 116 809.404 116.067 809.538 116.2C809.671 116.467 809.738 116.667 809.738 116.8C809.871 116.933 809.938 117 809.938 117C809.938 117.4 808.604 118.933 805.938 121.6C805.804 121.6 805.671 121.733 805.538 122C805.404 122.133 805.271 122.2 805.138 122.2C804.871 122.2 804.804 122.133 804.938 122H804.738C804.471 122 804.204 122.4 803.938 123.2L801.338 125V125.8C799.871 126.333 798.804 126.733 798.138 127C797.471 127.267 797.204 127.4 797.338 127.4C796.804 127.4 796.471 127.267 796.338 127C796.204 126.733 796.071 126.6 795.938 126.6H795.737C795.737 126.733 795.671 126.8 795.538 126.8C794.738 126.8 794.204 126.4 793.938 125.6L793.738 125.8C793.204 125.8 792.538 125.333 791.738 124.4C790.938 123.333 790.404 122.667 790.138 122.4L790.538 122C790.538 121.733 790.271 121.533 789.737 121.4C789.338 119.8 789.004 119.133 788.738 119.4C788.471 119.667 788.271 118.933 788.138 117.2C788.271 116.933 788.337 116.6 788.337 116.2C788.337 115.667 788.404 115.133 788.538 114.6C787.871 113.4 787.138 113 786.338 113.4C786.338 113.133 786.204 112.6 785.938 111.8C786.071 111.533 786.138 111.4 786.138 111.4C786.138 111.267 786.138 111.2 786.138 111.2C785.738 110.533 785.671 109.667 785.938 108.6L786.338 106.8L785.738 106V104.2C785.204 103.933 784.804 103.667 784.538 103.4C784.271 103 784.004 102.733 783.738 102.6V99.2C784.004 98.5333 784.204 98.1333 784.338 98L783.338 96.6V96.2C783.338 95.8 783.204 95.3333 782.938 94.8C782.671 94.1333 782.338 93.3333 781.938 92.4C781.138 91.6 780.338 91.2 779.538 91.2C779.404 91.2 779.271 91.2667 779.138 91.4C779.138 91.5333 779.004 91.6 778.738 91.6C779.004 91.6 778.804 91.4667 778.138 91.2C777.871 91.4667 777.738 91.7333 777.738 92C776.804 92 776.138 92.2 775.738 92.6C775.338 93 775.138 93.2 775.138 93.2C775.004 93.2 774.938 93.1333 774.938 93C775.071 92.8667 775.071 92.8 774.938 92.8C774.938 92.8 774.004 93.6 772.138 95.2C771.871 95.2 771.671 95.2667 771.538 95.4C770.871 95.8 770.538 96.2 770.538 96.6C768.804 97.1333 766.804 98.9333 764.538 102C764.404 102 764.071 102.133 763.538 102.4C762.604 103.467 761.404 104.8 759.938 106.4C758.471 107.867 756.804 109.6 754.938 111.6C754.538 112 754.204 112.4 753.938 112.8C753.671 113.2 752.938 114.2 751.738 115.8C751.604 115.933 751.404 116.133 751.138 116.4C750.871 116.667 750.604 116.933 750.338 117.2C750.338 117.6 750.071 118.267 749.538 119.2C749.138 120 748.938 121.133 748.938 122.6C748.938 122.867 748.604 123.467 747.938 124.4C747.271 125.333 746.938 126.067 746.938 126.6C746.938 126.867 747.004 127.067 747.138 127.2C746.738 127.333 746.138 127.6 745.338 128C744.671 128.4 744.271 128.6 744.138 128.6C744.004 128.6 743.871 128.533 743.738 128.4C743.738 128.267 743.671 128.2 743.537 128.2C743.271 128.2 742.871 128.467 742.338 129V129.4C742.338 129.8 742.138 130.4 741.738 131.2C740.804 131.2 740.338 131.6 740.338 132.4C739.804 132.533 739.404 132.533 739.138 132.4Z" fill="#030303"/>
</svg>
