<svg width="990" height="121" viewBox="0 0 990 121" fill="none" xmlns="http://www.w3.org/2000/svg">
<g clip-path="url(#clip0_23_8)">
<path d="M973.9 27.1C961.7 14.6 941.4 6.30002 913 2.10002C890.8 -1.09998 869.2 -0.49999 848.2 4.00001C827.2 8.50001 806.6 14.9 786.5 23.3C766.4 31.7 746.4 41.3 726.6 52C706.8 62.7 686.9 72.8 667.1 82C643.2 93.2 619.5 101.8 595.9 107.8C572.3 113.8 548.2 115 523.6 111.4C518.5 110.7 512.6 109.2 506 107.1C507.7 106.4 509.3 105.7 510.9 104.9C523.9 98.8 534.2 92.3 542 85.2C549.8 78.2 555.2 71.2 558.2 64.3C561.2 57.4 562.3 51.6 561.7 47.1C560.7 43.5 559.5 40.9 558.1 39.4C556.6 37.9 553.4 37.6 548.5 38.3C545.2 38.8 542.9 40.6 541.4 43.7C540 46.8 539.1 50.1 538.7 53.5C538.4 56.9 538.2 60.1 538.2 63C538.2 65.9 538.2 67.6 538.3 68C539 72.5 536.7 77.2 531.5 81.9C526.3 86.6 519.9 91 512.3 95.1C506.8 98.1 501 100.7 495 103C489 100.7 483.3 98 477.7 95.1C470.1 91.1 463.7 86.7 458.5 81.9C453.3 77.2 451.1 72.5 451.7 68C451.8 67.6 451.8 65.9 451.8 63C451.8 60.1 451.6 56.9 451.3 53.5C451 50.1 450.1 46.8 448.6 43.7C447.2 40.6 444.8 38.7 441.5 38.3C436.6 37.6 433.4 38 431.9 39.4C430.4 40.9 429.2 43.4 428.3 47.1C427.6 51.6 428.8 57.4 431.8 64.3C434.8 71.2 440.2 78.2 448 85.2C455.8 92.2 466.2 98.8 479.1 104.9C480.7 105.6 482.3 106.4 484 107.1C477.4 109.2 471.5 110.7 466.4 111.4C441.7 115 417.6 113.8 394.1 107.8C370.6 101.8 346.8 93.2 322.9 82C303.1 72.7 283.2 62.7 263.4 52C243.6 41.3 223.6 31.7 203.5 23.3C183.4 14.9 162.8 8.50001 141.8 4.00001C120.8 -0.49999 99.2 -1.09998 77 2.10002C48.6 6.20002 28.3 14.6 16.1 27.1C3.90001 39.6 -0.999992 54.3 1.40001 71.1C2.70001 79.7 5.60001 87 10.2 92.8C14.8 98.6 20.1 103.3 26.1 106.9C32.1 110.4 38.4 112.9 45.1 114.2C51.8 115.5 57.6 115.8 62.6 115.1C65.1 114.7 64.2 114 60.1 112.9C56 111.8 50.7 109.7 44.3 106.4C37.9 103.1 31.6 98.7 25.4 93.1C19.1 87.5 15.3 80 13.9 70.5C13.2 65.6 13.4 59.9 14.6 53.4C15.8 46.9 18.1 40.8 21.7 35C25.3 29.2 30.4 24 37 19.2C43.7 14.4 51.9 11.4 61.8 9.9C83.6 6.7 104.9 7.50002 125.8 12.2C146.6 16.9 167.5 23.7 188.3 32.7C209.1 41.6 230 51.7 251 62.9C272 74.1 293.6 84.2 315.9 93.1C338.7 102.8 362.1 110.4 386 115.9C409.9 121.4 435.4 122.2 462.6 118.3C474.7 116.5 485.6 114.1 495.2 111.1C504.8 114.2 515.7 116.6 527.8 118.3C554.9 122.3 580.5 121.5 604.4 115.9C628.3 110.4 651.7 102.8 674.5 93.1C696.8 84.2 718.4 74.1 739.4 62.9C760.4 51.7 781.2 41.6 802.1 32.7C822.9 23.8 843.8 17 864.6 12.2C885.4 7.50002 906.8 6.7 928.6 9.9C938.5 11.3 946.7 14.4 953.4 19.2C960.1 24 965.2 29.2 968.7 35C972.3 40.8 974.6 46.9 975.8 53.4C977 59.9 977.2 65.6 976.5 70.5C975.1 80 971.3 87.5 965 93.1C958.7 98.7 952.4 103.1 946.1 106.4C939.7 109.7 934.5 111.8 930.3 112.9C926.2 114 925.3 114.7 927.8 115.1C932.7 115.8 938.6 115.5 945.3 114.2C952 112.9 958.3 110.4 964.3 106.9C970.3 103.4 975.6 98.7 980.2 92.8C984.8 87 987.8 79.7 989 71.1C991 54.2 986.1 39.6 973.9 27.1Z" fill="black"/>
</g>
<defs>
<clipPath id="clip0_23_8">
<rect width="990" height="121" fill="white"/>
</clipPath>
</defs>
</svg>
